<svg width="25" height="24" viewBox="0 0 25 24" fill="none" xmlns="http://www.w3.org/2000/svg">
<path fill-rule="evenodd" clip-rule="evenodd" d="M5.3457 7.75H20.3457C20.7599 7.75 21.0957 7.41421 21.0957 7C21.0957 6.58579 20.7599 6.25 20.3457 6.25H5.3457C4.93149 6.25 4.5957 6.58579 4.5957 7C4.5957 7.41421 4.93149 7.75 5.3457 7.75ZM20.3457 11.25H5.3457C4.93149 11.25 4.5957 11.5858 4.5957 12C4.5957 12.4142 4.93149 12.75 5.3457 12.75H20.3457C20.7599 12.75 21.0957 12.4142 21.0957 12C21.0957 11.5858 20.7599 11.25 20.3457 11.25ZM5.3457 16.25H20.3457C20.7599 16.25 21.0957 16.5858 21.0957 17C21.0957 17.4142 20.7599 17.75 20.3457 17.75H5.3457C4.93149 17.75 4.5957 17.4142 4.5957 17C4.5957 16.5858 4.93149 16.25 5.3457 16.25Z" fill="#167DB7"/>
</svg>
