<svg width="440" height="220" viewBox="0 0 440 220" fill="none" xmlns="http://www.w3.org/2000/svg">
<rect width="440" height="220" rx="5.08669" fill="#BFE8D3"/>
<mask id="mask0_914_5020" style="mask-type:luminance" maskUnits="userSpaceOnUse" x="0" y="0" width="440" height="220">
<rect width="440" height="220" rx="5.08669" fill="white"/>
</mask>
<g mask="url(#mask0_914_5020)">
<path opacity="0.296782" fill-rule="evenodd" clip-rule="evenodd" d="M5.27833 271.562C75.1786 324.915 409.247 310.472 441.963 231.404C517.482 48.8981 144.181 82.2376 41.7304 119.927C-17.1698 141.596 -42.9792 234.729 5.27833 271.562Z" fill="white"/>
</g>
<g clip-path="url(#clip0_914_5020)">
<path fill-rule="evenodd" clip-rule="evenodd" d="M365.131 56.2009C326.282 41.9487 188.061 40.0271 119.931 44.8174C96.4333 46.4696 58.122 49.5707 56.5402 75.6843C52.5897 140.904 57.6077 149.089 67.642 155.924C73.093 159.637 84.6738 162.091 109.146 164.318C164.361 169.344 251.579 173.954 313.751 168.424C349.507 165.243 372.939 162.052 383.364 145.944C390.389 129.397 394.527 66.985 365.131 56.2009Z" fill="white"/>
<path fill-rule="evenodd" clip-rule="evenodd" d="M56.7087 97.002C61.0084 96.6606 62.9073 94.6017 61.8032 91.885C60.8048 89.4294 57.4716 90.3534 55.8337 90.6173C51.312 91.3462 47.4369 91.0675 49.1585 94.8732C50.8807 98.6788 53.3591 97.5018 56.7087 97.002Z" fill="#FF8B70"/>
<path fill-rule="evenodd" clip-rule="evenodd" d="M57.3825 76.9651C62.2944 80.7347 65.9528 81.0077 66.8787 77.9958C67.7153 75.2726 63.3938 72.8316 61.4181 71.4933C55.9635 67.7989 51.9937 63.9738 50.8854 68.3575C49.7778 72.7407 53.3734 74.1986 57.3825 76.9651Z" fill="#FF8B70"/>
<path d="M185.076 99.9775H188.464L194.927 87.2001V84.4989H183.865V87.168H191.669V87.3502L185.076 99.9775ZM203.77 100.374C207.254 100.374 209.58 98.1445 209.58 94.8644C209.58 91.7237 207.446 89.7728 204.777 89.7728C203.169 89.7728 202.033 90.3516 201.39 91.3271H201.197L201.594 87.168H208.744V84.5096H199.085L198.26 93.6103H201.154C201.637 92.6991 202.58 92.131 203.802 92.131C205.378 92.131 206.492 93.2351 206.492 94.8966C206.492 96.601 205.367 97.7265 203.738 97.7265C202.301 97.7265 201.197 96.8797 201.026 95.5719H198.035C198.131 98.3375 200.415 100.374 203.77 100.374ZM215.581 91.7558C217.897 91.7558 219.258 90.3623 219.258 87.9719C219.258 85.6351 217.865 84.2094 215.581 84.2094C213.309 84.2094 211.905 85.6458 211.905 87.9719C211.905 90.3516 213.266 91.7558 215.581 91.7558ZM215.581 89.8371C214.799 89.8371 214.349 89.1618 214.349 87.9826C214.349 86.8357 214.81 86.1389 215.581 86.1389C216.343 86.1389 216.803 86.8357 216.803 87.9826C216.803 89.151 216.364 89.8371 215.581 89.8371ZM217.168 99.9775L227.448 84.5096H224.972L214.692 99.9775H217.168ZM226.558 100.16C228.873 100.16 230.235 98.7663 230.235 96.3759C230.235 94.039 228.841 92.6241 226.558 92.6241C224.286 92.6241 222.881 94.0498 222.881 96.3759C222.881 98.7663 224.253 100.16 226.558 100.16ZM226.558 98.241C225.776 98.241 225.336 97.5657 225.336 96.3866C225.336 95.2396 225.786 94.5429 226.558 94.5429C227.33 94.5429 227.791 95.2396 227.791 96.3866C227.791 97.555 227.341 98.241 226.558 98.241ZM249.345 92.324C249.088 89.6334 247.212 87.8969 244.082 87.8969C240.384 87.8969 238.305 90.1158 238.305 94.039C238.305 98.0052 240.395 100.235 244.082 100.235C247.159 100.235 249.088 98.5304 249.345 95.8828H246.43C246.194 97.0512 245.358 97.6729 244.082 97.6729C242.41 97.6729 241.456 96.3973 241.456 94.039C241.456 91.713 242.399 90.4588 244.082 90.4588C245.411 90.4588 246.215 91.1984 246.43 92.324H249.345ZM257.448 100.235C261.082 100.235 263.269 97.9302 263.269 94.0605C263.269 90.223 261.05 87.8969 257.448 87.8969C253.847 87.8969 251.628 90.2337 251.628 94.0605C251.628 97.9302 253.814 100.235 257.448 100.235ZM257.448 97.6836C255.776 97.6836 254.833 96.3651 254.833 94.0605C254.833 91.788 255.787 90.4481 257.448 90.4481C259.099 90.4481 260.064 91.788 260.064 94.0605C260.064 96.3544 259.11 97.6836 257.448 97.6836ZM266.237 99.9775H269.356V92.8599C269.356 91.5415 270.225 90.5874 271.447 90.5874C272.669 90.5874 273.398 91.3056 273.398 92.5598V99.9775H276.399V92.742C276.399 91.4879 277.214 90.5874 278.479 90.5874C279.797 90.5874 280.451 91.2842 280.451 92.6884V99.9775H283.57V91.863C283.57 89.4297 282.102 87.8969 279.743 87.8969C278.093 87.8969 276.731 88.7652 276.185 90.0836H275.992C275.52 88.7116 274.384 87.8969 272.722 87.8969C271.168 87.8969 269.935 88.733 269.453 90.0836H269.26V88.1542H266.237V99.9775ZM293.849 87.9612C292.22 87.9612 290.88 88.7652 290.237 90.0943H290.044V88.1542H287.021V103.901H290.14V98.166H290.333C290.912 99.4201 292.209 100.16 293.903 100.16C296.861 100.16 298.673 97.8766 298.673 94.0605C298.673 90.2337 296.84 87.9612 293.849 87.9612ZM292.788 97.555C291.137 97.555 290.108 96.2365 290.108 94.0712C290.108 91.9059 291.137 90.5767 292.799 90.5767C294.46 90.5767 295.468 91.8952 295.468 94.0605C295.468 96.2472 294.471 97.555 292.788 97.555ZM305.897 97.8122C304.814 97.8122 304.053 97.2763 304.053 96.3973C304.053 95.5505 304.707 95.0681 306.047 94.9716L308.437 94.8216V95.6898C308.437 96.8904 307.344 97.8122 305.897 97.8122ZM304.868 100.16C306.4 100.16 307.687 99.5166 308.298 98.434H308.491V99.9775H311.514V91.9059C311.514 89.3762 309.745 87.8969 306.615 87.8969C303.646 87.8969 301.641 89.269 301.437 91.4557H304.31C304.567 90.7482 305.318 90.3623 306.443 90.3623C307.73 90.3623 308.437 90.9197 308.437 91.9059V92.8706L305.575 93.0422C302.638 93.2137 300.998 94.4571 300.998 96.601C300.998 98.7663 302.595 100.16 304.868 100.16ZM315.886 85.3457V88.2721H314.042V90.7268H315.886V96.7832C315.886 99.0878 317.022 100.02 319.895 100.02C320.495 100.02 321.074 99.9561 321.46 99.8811V97.5014C321.16 97.5335 320.946 97.5443 320.538 97.5443C319.477 97.5443 319.005 97.0726 319.005 96.0436V90.7268H321.46V88.2721H319.005V85.3457H315.886ZM324.503 99.9775H327.623V88.1542H324.503V99.9775ZM326.068 86.3855C327.044 86.3855 327.837 85.5922 327.837 84.5953C327.837 83.5984 327.044 82.8159 326.068 82.8159C325.104 82.8159 324.3 83.5984 324.3 84.5953C324.3 85.5922 325.104 86.3855 326.068 86.3855ZM338.17 100.16C341.139 100.16 342.961 97.8551 342.961 94.0605C342.961 90.2444 341.16 87.9612 338.17 87.9612C336.551 87.9612 335.222 88.7437 334.622 90.0407H334.429V83.6413H331.309V99.9775H334.332V98.1231H334.525C335.157 99.4094 336.497 100.16 338.17 100.16ZM337.087 90.5767C338.738 90.5767 339.756 91.9059 339.756 94.0605C339.756 96.2258 338.748 97.555 337.087 97.555C335.436 97.555 334.407 96.2151 334.396 94.0712C334.407 91.9166 335.447 90.5767 337.087 90.5767ZM346.026 99.9775H349.145V83.6413H346.026V99.9775ZM357.923 90.2873C359.381 90.2873 360.325 91.2627 360.389 92.8278H355.351C355.458 91.2949 356.476 90.2873 357.923 90.2873ZM360.453 96.6117C360.121 97.3942 359.274 97.8337 358.041 97.8337C356.412 97.8337 355.383 96.7403 355.34 94.9823V94.8216H363.455V93.8675C363.455 90.1158 361.396 87.8969 357.913 87.8969C354.397 87.8969 352.231 90.2766 352.231 94.1248C352.231 97.9623 354.354 100.235 357.956 100.235C360.85 100.235 362.897 98.8306 363.358 96.6117H360.453ZM194.852 118.324C194.595 115.633 192.719 113.897 189.589 113.897C185.891 113.897 183.811 116.116 183.811 120.039C183.811 124.005 185.902 126.235 189.589 126.235C192.666 126.235 194.595 124.53 194.852 121.883H191.937C191.701 123.051 190.865 123.673 189.589 123.673C187.917 123.673 186.963 122.397 186.963 120.039C186.963 117.713 187.906 116.459 189.589 116.459C190.918 116.459 191.722 117.198 191.937 118.324H194.852ZM202.955 126.235C206.589 126.235 208.776 123.93 208.776 120.06C208.776 116.223 206.557 113.897 202.955 113.897C199.353 113.897 197.135 116.234 197.135 120.06C197.135 123.93 199.321 126.235 202.955 126.235ZM202.955 123.684C201.283 123.684 200.34 122.365 200.34 120.06C200.34 117.788 201.294 116.448 202.955 116.448C204.606 116.448 205.571 117.788 205.571 120.06C205.571 122.354 204.617 123.684 202.955 123.684ZM211.744 125.978H214.863V119.16C214.863 117.606 215.753 116.587 217.2 116.587C218.679 116.587 219.376 117.445 219.376 119.074V125.978H222.495V118.335C222.495 115.505 221.08 113.897 218.454 113.897C216.707 113.897 215.506 114.722 214.96 116.051H214.767V114.154H211.744V125.978ZM232.13 125.978H235.25V109.641H232.13V125.978ZM243.181 123.812C242.098 123.812 241.337 123.276 241.337 122.397C241.337 121.55 241.991 121.068 243.331 120.972L245.721 120.822V121.69C245.721 122.89 244.628 123.812 243.181 123.812ZM242.152 126.16C243.685 126.16 244.971 125.517 245.582 124.434H245.775V125.978H248.798V117.906C248.798 115.376 247.029 113.897 243.899 113.897C240.93 113.897 238.925 115.269 238.722 117.456H241.594C241.852 116.748 242.602 116.362 243.728 116.362C245.014 116.362 245.721 116.92 245.721 117.906V118.871L242.859 119.042C239.922 119.214 238.282 120.457 238.282 122.601C238.282 124.766 239.879 126.16 242.152 126.16ZM263.599 126.235C267.233 126.235 269.42 123.93 269.42 120.06C269.42 116.223 267.201 113.897 263.599 113.897C259.998 113.897 257.779 116.234 257.779 120.06C257.779 123.93 259.965 126.235 263.599 126.235ZM263.599 123.684C261.927 123.684 260.984 122.365 260.984 120.06C260.984 117.788 261.938 116.448 263.599 116.448C265.25 116.448 266.215 117.788 266.215 120.06C266.215 122.354 265.261 123.684 263.599 123.684ZM273.299 125.978H276.419V116.727H278.863V114.272H276.354V113.297C276.354 112.289 276.804 111.807 278.026 111.807C278.434 111.807 278.755 111.839 278.959 111.86V109.652C278.509 109.577 277.984 109.534 277.351 109.534C274.5 109.534 273.299 110.724 273.299 113.072V114.272H271.391V116.727H273.299V125.978ZM286.472 116.287C287.93 116.287 288.873 117.263 288.938 118.828H283.9C284.007 117.295 285.025 116.287 286.472 116.287ZM289.002 122.612C288.67 123.394 287.823 123.834 286.59 123.834C284.961 123.834 283.932 122.74 283.889 120.982V120.822H292.003V119.868C292.003 116.116 289.945 113.897 286.462 113.897C282.946 113.897 280.78 116.277 280.78 120.125C280.78 123.962 282.903 126.235 286.504 126.235C289.399 126.235 291.446 124.831 291.907 122.612H289.002ZM294.983 125.978H298.102V119.428C298.102 117.767 299.27 116.759 300.975 116.759C301.478 116.759 302.207 116.855 302.454 116.952V114.111C302.186 114.015 301.661 113.961 301.232 113.961C299.731 113.961 298.509 114.862 298.198 116.041H298.005V114.154H294.983V125.978ZM306.344 111.346V114.272H304.5V116.727H306.344V122.783C306.344 125.088 307.48 126.02 310.353 126.02C310.953 126.02 311.532 125.956 311.918 125.881V123.501C311.618 123.534 311.404 123.544 310.996 123.544C309.935 123.544 309.463 123.073 309.463 122.044V116.727H311.918V114.272H309.463V111.346H306.344ZM319.206 123.812C318.124 123.812 317.363 123.276 317.363 122.397C317.363 121.55 318.016 121.068 319.356 120.972L321.747 120.822V121.69C321.747 122.89 320.653 123.812 319.206 123.812ZM318.177 126.16C319.71 126.16 320.996 125.517 321.607 124.434H321.8V125.978H324.823V117.906C324.823 115.376 323.054 113.897 319.924 113.897C316.955 113.897 314.951 115.269 314.747 117.456H317.62C317.877 116.748 318.627 116.362 319.753 116.362C321.039 116.362 321.747 116.92 321.747 117.906V118.871L318.885 119.042C315.948 119.214 314.308 120.457 314.308 122.601C314.308 124.766 315.905 126.16 318.177 126.16Z" fill="#167DB7"/>
<g clip-path="url(#clip1_914_5020)">
<ellipse cx="40.2614" cy="40.3389" rx="40.2614" ry="40.3389" transform="matrix(-1 0 0 1 162.545 65.165)" fill="#F7F0C2"/>
<mask id="mask1_914_5020" style="mask-type:luminance" maskUnits="userSpaceOnUse" x="82" y="65" width="81" height="81">
<ellipse cx="40.2614" cy="40.3389" rx="40.2614" ry="40.3389" transform="matrix(-1 0 0 1 162.545 65.165)" fill="white"/>
</mask>
<g mask="url(#mask1_914_5020)">
<path fill-rule="evenodd" clip-rule="evenodd" d="M135.524 92.4709C133.472 82.4828 118.452 70.9838 104.598 87.3134C96.2724 97.1269 103.099 124.358 110.837 129.984C113.301 131.381 117.075 131.885 118.452 132.721C121.086 134.32 120.336 128.611 132.497 123.216C142.09 118.961 145.557 110.405 143.912 108.309C142.266 106.213 137.576 102.459 135.524 92.4709Z" fill="#0C5077"/>
<path fill-rule="evenodd" clip-rule="evenodd" d="M134.507 97.2438C132.277 84.3266 128.492 83.8812 121.379 83.8983C110.708 83.9239 110.157 91.8512 111.06 99.1885C111.663 104.087 113.99 107.657 114.916 112.227C115.999 117.577 115.512 124.286 110.631 127.513C104.014 131.888 128.033 134.697 133.552 131.028C139.071 127.359 136.743 122.484 132.586 120.308C130.554 119.245 128.771 116.341 129.121 113.222C129.398 110.761 131.182 109.756 132.387 108.662C135.948 105.425 135.391 102.366 134.507 97.2438Z" fill="#87BBD9"/>
<path fill-rule="evenodd" clip-rule="evenodd" d="M120.283 94.9616C117.106 96.6104 113.055 97.4654 113.521 102.457C113.579 103.08 115.126 108.013 117.596 111.9C120.656 116.716 124.328 118.804 124.328 120.925C124.328 122.822 113.166 130.831 109.488 124.803C103.562 115.092 105.135 89.3938 116.647 81.5884C121.029 78.6174 129.08 83.7878 129.138 83.8977C131.879 89.0375 120.448 94.8764 120.283 94.9616Z" fill="#0C5077"/>
<path fill-rule="evenodd" clip-rule="evenodd" d="M96.4346 147.572C96.5072 150.631 155.06 141.986 154.295 138.431C150.408 120.357 132.175 119.325 132.175 120.013C132.175 120.642 138.714 124.046 132.175 128.667C125.662 133.269 118.012 126.382 111.62 125.8C109.518 125.609 95.9462 127.012 96.4346 147.572Z" fill="white"/>
<path fill-rule="evenodd" clip-rule="evenodd" d="M125.529 98.3995C125.3 97.9984 125.345 97.7025 125.678 97.3447C125.969 97.0311 126.432 97.1451 126.616 97.3285C127.032 97.7427 127.082 98.7632 126.464 98.9027C126.044 98.9974 125.719 98.7339 125.529 98.3995Z" fill="#083752"/>
<path fill-rule="evenodd" clip-rule="evenodd" d="M132.545 94.5006C132.345 94.1665 132.366 93.9311 132.607 93.6606C132.819 93.4236 133.187 93.5391 133.341 93.6959C133.687 94.0501 133.779 94.8726 133.303 94.953C132.979 95.0075 132.712 94.7791 132.545 94.5006Z" fill="#083752"/>
<path fill-rule="evenodd" clip-rule="evenodd" d="M122.557 97.2016C123.997 95.5221 125.479 95.1624 126.715 95.1965C127.037 95.2054 127.315 95.443 127.335 95.7325C127.355 96.0231 127.021 96.1099 126.699 96.0981C125.723 96.0622 124.296 96.3289 123.119 98.0631C122.957 98.3027 122.661 98.5733 122.396 98.3882C122.161 98.2249 122.164 97.6604 122.557 97.2016Z" fill="#0C5077"/>
<path fill-rule="evenodd" clip-rule="evenodd" d="M131.011 92.354C131.851 91.2655 132.771 91.0575 133.894 91.1138C134.412 91.1399 134.756 91.4158 134.747 91.6637C134.736 91.9444 134.397 92.0198 134.15 91.9961C132.873 91.874 131.867 92.1927 131.382 92.8855C130.658 93.9194 130.523 94.8329 132.026 96.3215C133.67 97.949 132.5 99.2315 132.211 99.1181C131.833 98.97 132.197 98.4322 132.274 98.1428C132.545 97.1211 130.585 96.1198 130.346 94.9375C130.13 93.8704 130.242 93.3518 131.011 92.354Z" fill="#0C5077"/>
<path fill-rule="evenodd" clip-rule="evenodd" d="M132.107 102.548C133.07 102.229 133.294 100.902 132.927 100.781C132.764 100.727 132.801 100.928 132.354 101.314C131.608 101.959 130.492 101.427 130.428 101.909C130.383 102.247 131.079 102.89 132.107 102.548Z" fill="white"/>
<path fill-rule="evenodd" clip-rule="evenodd" d="M113.577 103.213C110.627 103.829 110.699 105.87 110.945 106.907C111.55 109.447 113.487 109.991 115.574 108.567C116.88 107.675 115.046 102.907 113.577 103.213Z" fill="#87BBD9"/>
</g>
<g clip-path="url(#clip2_914_5020)">
<g clip-path="url(#clip3_914_5020)">
<g clip-path="url(#clip4_914_5020)">
<path d="M160.932 105.315C160.932 126.812 143.54 144.233 122.094 144.233C100.647 144.233 83.2552 126.812 83.2552 105.315C83.2552 83.8177 100.647 66.3968 122.094 66.3968C143.54 66.3968 160.932 83.8177 160.932 105.315Z" stroke="url(#paint0_angular_914_5020)" stroke-width="3.65885"/>
</g>
</g>
</g>
</g>
</g>
<defs>
<radialGradient id="paint0_angular_914_5020" cx="0" cy="0" r="1" gradientUnits="userSpaceOnUse" gradientTransform="translate(122.094 105.315) scale(40.6678 40.7475)">
<stop offset="0.497266" stop-color="#167DB7"/>
<stop offset="0.497929" stop-color="#E2E5E6"/>
<stop offset="0.746492" stop-color="#E2E5E6"/>
<stop offset="0.747154" stop-color="#167DB7"/>
</radialGradient>
<clipPath id="clip0_914_5020">
<rect width="356.068" height="128.863" fill="white" transform="translate(33.8086 42.3887)"/>
</clipPath>
<clipPath id="clip1_914_5020">
<rect width="82.9231" height="83.0826" fill="white" transform="translate(81.2002 64.3418)"/>
</clipPath>
<clipPath id="clip2_914_5020">
<rect width="82.9231" height="83.0826" fill="white" transform="translate(81.2002 64.3418)"/>
</clipPath>
<clipPath id="clip3_914_5020">
<rect width="82.9231" height="83.0826" fill="white" transform="translate(81.2002 64.3418)"/>
</clipPath>
<clipPath id="clip4_914_5020">
<rect width="82.0753" height="82.2348" fill="white" transform="translate(81.4258 64.5674)"/>
</clipPath>
</defs>
</svg>
