<svg width="440" height="220" viewBox="0 0 440 220" fill="none" xmlns="http://www.w3.org/2000/svg">
<g clip-path="url(#clip0_914_5156)">
<rect width="440" height="220" rx="8" fill="#FCF0C3"/>
<path opacity="0.513091" fill-rule="evenodd" clip-rule="evenodd" d="M-7.89011 286.902C65.872 334.009 418.397 321.257 452.921 251.446C532.611 90.304 138.686 119.741 30.5759 153.018C-31.5784 172.15 -58.8137 254.381 -7.89011 286.902Z" fill="white"/>
<path fill-rule="evenodd" clip-rule="evenodd" d="M171.415 181.286C177.803 179.067 181.236 170.528 183.232 169.913C185.186 169.311 182.015 177.695 181.854 178.181C181.125 180.378 194.773 178.677 195.886 182.473C200.282 197.471 181.516 190.657 177.368 192.538C169.036 196.315 146.015 213.666 114.745 204.774C83.4759 195.882 103.046 170.14 96.1324 154.786C94.1405 150.362 98.0287 137.961 108.966 147.781C120.122 157.799 122.717 181.494 129.538 186.264C139.287 193.082 161.938 184.577 171.415 181.286Z" fill="#509BC8"/>
<path fill-rule="evenodd" clip-rule="evenodd" d="M106.057 70.2142C101.725 49.1312 70.0225 24.8592 40.7794 59.3277C23.2055 80.042 37.6149 137.52 53.9484 149.396C59.1489 152.346 67.1156 153.409 70.0225 155.174C75.5821 158.549 73.9987 146.499 99.6689 135.111C119.918 126.128 127.235 108.07 123.762 103.645C120.289 99.2203 110.389 91.2972 106.057 70.2142Z" fill="#0C5077"/>
<path fill-rule="evenodd" clip-rule="evenodd" d="M103.91 80.2887C99.2029 53.023 91.2149 52.0829 76.1996 52.1189C53.6764 52.1729 52.512 68.9059 54.419 84.3935C55.6921 94.7325 60.603 102.268 62.5569 111.915C64.8445 123.208 63.8159 137.368 53.5127 144.181C39.5466 153.415 90.2446 159.344 101.894 151.6C113.543 143.856 108.629 133.565 99.8549 128.973C95.5675 126.729 91.8023 120.598 92.5421 114.016C93.1259 108.821 96.8925 106.7 99.4353 104.389C106.953 97.557 105.776 91.1013 103.91 80.2887Z" fill="#87BBD9"/>
<path fill-rule="evenodd" clip-rule="evenodd" d="M73.8865 75.4706C67.1798 78.951 58.6289 80.7557 59.6125 91.2919C59.7353 92.6078 62.9996 103.019 68.213 111.224C74.6728 121.39 82.424 125.796 82.424 130.274C82.424 134.278 58.8628 151.183 51.0987 138.46C38.5905 117.962 41.911 63.7182 66.211 47.2424C75.4602 40.9713 92.4534 51.8849 92.5771 52.117C98.3631 62.9662 74.233 75.2908 73.8865 75.4706Z" fill="#0C5077"/>
<path fill-rule="evenodd" clip-rule="evenodd" d="M39.5586 226.021C39.712 232.477 139.682 233.524 138.069 226.021C123.62 187.666 129.24 164.11 120.008 149.576C110.259 127.383 98.9872 127.51 98.9872 128.349C98.9872 129.679 112.79 136.864 98.9872 146.617C85.2395 156.331 69.0922 141.794 55.5992 140.566C51.1643 140.163 21.8268 146.617 39.5586 226.021Z" fill="white"/>
<path fill-rule="evenodd" clip-rule="evenodd" d="M84.96 82.7276C84.4771 81.8811 84.573 81.2565 85.2741 80.5011C85.8885 79.8391 86.8668 80.0799 87.2552 80.467C88.1329 81.3413 88.239 83.4953 86.9333 83.7899C86.0481 83.9898 85.3626 83.4335 84.96 82.7276Z" fill="#083752"/>
<path fill-rule="evenodd" clip-rule="evenodd" d="M99.7699 74.4979C99.3483 73.7928 99.3912 73.2958 99.9007 72.725C100.347 72.2245 101.125 72.4683 101.449 72.7993C102.181 73.5471 102.375 75.2832 101.369 75.4529C100.687 75.5679 100.121 75.0858 99.7699 74.4979Z" fill="#083752"/>
<path fill-rule="evenodd" clip-rule="evenodd" d="M78.687 80.1997C81.7258 76.6547 84.8547 75.8955 87.4627 75.9674C88.1439 75.9863 88.7304 76.4878 88.7726 77.0989C88.8145 77.7122 88.1105 77.8956 87.4301 77.8705C85.3702 77.7948 82.3575 78.3577 79.8736 82.0182C79.5303 82.5239 78.9073 83.0952 78.3469 82.7045C77.852 82.3597 77.8568 81.1683 78.687 80.1997Z" fill="#0C5077"/>
<path fill-rule="evenodd" clip-rule="evenodd" d="M96.5309 69.9666C98.3021 67.6689 100.244 67.2298 102.615 67.3487C103.709 67.4036 104.436 67.9862 104.416 68.5094C104.393 69.1019 103.677 69.261 103.155 69.2109C100.46 68.9532 98.3362 69.626 97.3122 71.0883C95.7843 73.2706 95.4998 75.199 98.6729 78.341C102.142 81.7764 99.6728 84.4835 99.0628 84.2442C98.2657 83.9315 99.0329 82.7964 99.1951 82.1853C99.7678 80.0289 95.6307 77.9154 95.1258 75.4197C94.6701 73.1673 94.9074 72.0726 96.5309 69.9666Z" fill="#0C5077"/>
<path fill-rule="evenodd" clip-rule="evenodd" d="M98.845 91.486C100.876 90.8109 101.35 88.0112 100.575 87.7555C100.231 87.642 100.309 88.0648 99.3657 88.8796C97.79 90.241 95.4349 89.1181 95.3003 90.1367C95.2059 90.8507 96.6744 92.2077 98.845 91.486Z" fill="white"/>
<path fill-rule="evenodd" clip-rule="evenodd" d="M59.7316 92.8902C53.5035 94.1895 53.6551 98.4976 54.1761 100.686C55.4523 106.049 59.5416 107.197 63.947 104.19C66.7037 102.308 62.8315 92.2435 59.7316 92.8902Z" fill="#87BBD9"/>
<path fill-rule="evenodd" clip-rule="evenodd" d="M226.947 164.659C213.223 189.231 193.216 228.528 185.624 238.121C178.032 247.715 166.119 224.755 164.077 217.261C162.034 209.767 181.15 176.515 190.755 158.171C200.361 139.826 200.474 131.122 212.12 134.287C224.299 137.598 244.644 132.971 226.947 164.659Z" fill="#E6E6E6"/>
<path fill-rule="evenodd" clip-rule="evenodd" d="M217.007 165.561C204.648 187.689 189.555 220.529 182.719 229.168C175.882 237.808 168.547 223.192 166.708 216.443C164.869 209.695 184.588 173.494 193.238 156.975C201.888 140.456 201.902 134.586 212.389 137.436C223.358 140.418 232.944 137.025 217.007 165.561Z" fill="white"/>
<path fill-rule="evenodd" clip-rule="evenodd" d="M208.291 164.099C211.024 165.477 213.206 169.288 209.485 168.401C205.766 167.514 201.43 165.243 197.979 163.822C194.527 162.401 192.946 158.698 196.266 159.416C199.588 160.135 204.775 162.325 208.291 164.099Z" fill="#E6E6E6"/>
<path fill-rule="evenodd" clip-rule="evenodd" d="M213.644 153.206C216.377 154.584 218.558 158.395 214.838 157.508C211.118 156.622 206.783 154.351 203.332 152.929C199.88 151.508 198.298 147.805 201.619 148.524C204.94 149.242 210.128 151.433 213.644 153.206Z" fill="#E6E6E6"/>
<path fill-rule="evenodd" clip-rule="evenodd" d="M203.887 173.449C206.62 174.827 209.022 178.606 205.302 177.718C201.583 176.832 197.752 174.859 194.301 173.438C190.85 172.015 188.541 168.048 191.861 168.767C195.183 169.485 200.37 171.676 203.887 173.449Z" fill="#E6E6E6"/>
<path fill-rule="evenodd" clip-rule="evenodd" d="M193.909 181.004C197.876 183.154 195.863 185.305 194.877 184.951C191.278 183.659 192.178 184.268 188.727 182.847C185.275 181.425 183.811 177.852 187.132 178.57C190.453 179.289 190.446 179.127 193.909 181.004Z" fill="#E6E6E6"/>
<path fill-rule="evenodd" clip-rule="evenodd" d="M158.764 191.185C165.215 186.861 170.353 180.682 173.739 179.38C177.124 178.078 179.394 180.69 180.928 182.079C181.51 180.366 180.317 184.99 180.928 182.079C180.23 184.129 184.993 184.16 185.925 186.352C193.45 198.667 170.409 199.725 166.265 203.028C157.939 209.661 135.628 235.764 102.079 234.726C68.5299 233.687 53.223 201.578 44.4671 186.298C41.9441 181.895 44.7666 166.839 57.1718 174.747C69.8256 182.812 78.9033 214.104 106.585 211.972C134.267 209.839 149.194 197.601 158.764 191.185Z" fill="#88BCDA"/>
<path fill-rule="evenodd" clip-rule="evenodd" d="M77.9993 182.382C80.7286 189.606 59.3507 207.783 52.1164 205.085C44.882 202.389 35.7661 180.024 40.8316 166.394C44.9676 155.264 63.7285 155.679 71.5155 169.694C75.2756 176.463 76.4654 178.322 77.9993 182.382Z" fill="white"/>
<path d="M197.392 187.495C195.037 188.451 192.161 189.987 190.112 190.391C188.235 190.76 179.311 191.145 177.131 191.236C174.952 191.327 171.043 191.512 167.574 191.717C164.105 191.922 159.45 191.878 157.338 191.835C155.226 191.792 153.74 191.645 153.758 188.337C153.775 185.029 154.745 181.482 156.862 181.527C158.979 181.572 156.547 181.424 160.077 181.418C163.607 181.412 172.264 181.176 174.706 181.216C177.148 181.256 187.056 180.642 188.575 180.888C190.095 181.133 196.687 183.044 198.006 183.359C199.326 183.675 200.998 186.03 197.392 187.495Z" fill="#FFB1A0"/>
<path d="M189.108 180.833C190.631 181.045 196.638 182.948 197.957 183.264C199.276 183.579 200.997 186.031 197.392 187.494C195.038 188.45 192.188 190.187 190.112 190.391C191.003 187.885 191 184.26 189.108 180.833Z" fill="#FFD8CF"/>
<path d="M198.261 183.342C199.553 183.75 201.309 186.01 197.392 187.495C197.788 185.771 197.738 184.638 197.152 183.098C197.935 183.231 197.975 183.252 198.261 183.342Z" fill="#E6E6E6"/>
<path d="M161.998 181.345C159.228 181.335 157.144 181.323 156.534 181.312C154.335 181.266 153.441 184.822 153.423 188.261C153.405 191.701 154.949 191.856 157.146 191.9C158.13 191.919 159.647 191.939 161.343 191.938C161.343 191.938 162.268 190.431 162.418 187.017C162.567 183.603 161.998 181.345 161.998 181.345Z" fill="#FFD8CF"/>
<path d="M156.415 181.281C154.244 180.971 153.453 184.819 153.42 188.265C153.4 190.456 153.972 191.393 155.306 191.785C156.64 192.177 158.037 181.514 156.415 181.281Z" fill="#FFB1A0"/>
<path d="M182.702 182.225C179.691 180.637 158.571 192.38 156.002 194.661L165.383 196.857C172.783 195.666 187.545 192.676 187.396 190.248C187.211 187.212 186.467 184.211 182.702 182.225Z" fill="#88BCDA"/>
<path fill-rule="evenodd" clip-rule="evenodd" d="M289.203 8.12006C288.841 28.5903 295.117 72.0077 282.918 87.0173C266.003 107.832 216.454 101.488 192.807 100.532C184.4 100.193 170.237 96.4483 169.148 68.2842C165.685 -21.2743 148.971 -32.5404 233.437 -31.8197C241.327 -31.7531 270.825 -29.9331 278.259 -24.1141C286.549 -17.6243 289.453 -5.97738 289.203 8.12006Z" fill="white"/>
<path fill-rule="evenodd" clip-rule="evenodd" d="M197.928 53.1105C188.674 53.3332 183.129 49.3561 188.961 47.1876C194.795 45.0183 223.241 46.2328 231.952 46.0626C240.664 45.8908 245.47 46.1275 245.559 49.9533C245.658 54.0702 229.98 52.4861 218.023 52.8799C207.27 53.236 197.928 53.1105 197.928 53.1105Z" fill="#FEF9E7"/>
<path fill-rule="evenodd" clip-rule="evenodd" d="M186.526 70.8912C186.754 77.5319 182.44 87.4558 202 86.9833C222.444 86.4888 242.87 86.7471 255.423 86.2738C267.976 85.8005 273.523 82.0135 273.231 73.2583C272.939 64.5024 269.436 64.5024 244.913 64.5024C220.39 64.5024 186.234 62.3722 186.526 70.8912Z" fill="#FFECEA"/>
<path fill-rule="evenodd" clip-rule="evenodd" d="M191.739 38.4853C185.754 37.7135 182.724 33.1135 191.184 31.6946C199.645 30.2772 219.533 30.3083 232.34 30.2795C245.148 30.2499 268.027 31.5196 270.703 31.4989C273.377 31.479 278.678 36.6454 267.509 37.7628C256.341 38.8794 217.601 37.0938 208.288 37.6473C198.976 38.2 194.257 38.8097 191.739 38.4853Z" fill="#FEF9E7"/>
<path fill-rule="evenodd" clip-rule="evenodd" d="M186.344 2.81599C186.409 9.45675 185.181 19.3806 190.748 18.9081C196.567 18.4137 202.382 18.6719 205.955 18.1986C209.528 17.7253 211.107 13.9383 211.024 5.18315C210.94 -3.57283 209.943 -3.57283 202.963 -3.57283C195.983 -3.57283 186.261 -5.70296 186.344 2.81599Z" fill="#FEF9E7"/>
<path fill-rule="evenodd" clip-rule="evenodd" d="M226.079 15.6556C220.591 15.4969 217.404 11.4281 220.913 9.56758C224.423 7.70631 241.248 10.03 246.414 10.2176C251.58 10.4037 254.421 10.8267 254.379 14.5287C254.336 18.5125 245.086 16.3474 237.992 16.2449C231.612 16.1545 226.079 15.6556 226.079 15.6556Z" fill="#FEF9E7"/>
<path fill-rule="evenodd" clip-rule="evenodd" d="M222.774 3.26733C219.248 2.27936 217.566 -2.2899 222.614 -3.31964C227.663 -4.34785 239.446 -3.51404 247.035 -3.02423C254.624 -2.53519 268.148 -0.383068 269.734 -0.294979C271.32 -0.20613 274.332 5.00254 267.687 5.63132C261.042 6.25933 238.132 2.96737 232.601 3.12608C227.07 3.28404 224.259 3.68272 222.774 3.26733Z" fill="#FEF9E7"/>
<path fill-rule="evenodd" clip-rule="evenodd" d="M343.448 31.5532C351.747 27.3445 358.683 36.0646 373.82 39.0627C402.574 44.7585 409.411 72.5283 405.616 88.0304C397.459 121.349 363.188 88.3395 346.893 81.1304C324.509 71.2274 325.435 40.6886 343.448 31.5532Z" fill="#0B5077"/>
<path fill-rule="evenodd" clip-rule="evenodd" d="M344.64 110.259C336.72 102.741 337.013 96.5077 338.377 87.4483C338.469 86.8445 337.478 85.8146 337.577 85.1844C337.662 84.6374 339.752 84.0733 340.016 80.8527C341.208 66.2628 344.44 54.3351 360.132 54.2994C383.67 54.2464 392.086 71.1376 392.125 87.4935C392.165 103.849 385.402 111.573 383.173 119.675C379.616 132.602 388.827 144.259 396.122 155.937C405.402 170.795 364.492 170.693 352.279 162.633C340.065 154.572 327.201 146.093 336.289 141.128C349.494 133.915 353.583 118.747 344.64 110.259Z" fill="#87BBD9"/>
<mask id="mask0_914_5156" style="mask-type:luminance" maskUnits="userSpaceOnUse" x="342" y="37" width="71" height="86">
<path fill-rule="evenodd" clip-rule="evenodd" d="M400.141 37.3076L342.993 46.8621L355.681 122.753L412.829 113.198L400.141 37.3076Z" fill="white"/>
</mask>
<g mask="url(#mask0_914_5156)">
<path fill-rule="evenodd" clip-rule="evenodd" d="M348.031 49.9845C339.01 63.8169 352.302 70.4626 363.813 69.3464C379.204 67.8549 353.97 107.683 380.089 117.528C384.503 119.192 389.942 116.509 392.703 113.705C396.089 110.266 423.611 74.0977 390.694 50.9379C373.112 38.5676 352.082 43.7709 348.031 49.9845Z" fill="#0B5077"/>
</g>
<path fill-rule="evenodd" clip-rule="evenodd" d="M365.752 87.7679C370.24 86.4039 371.67 89.3538 372.11 91.0114C373.188 95.073 370.952 97.3125 367.037 96.8742C364.586 96.6003 363.518 88.4468 365.752 87.7679Z" fill="#87BBD9"/>
<path fill-rule="evenodd" clip-rule="evenodd" d="M252.824 90.898C252.007 82.9855 253.383 76.1368 251.368 70.1803C247.94 60.0459 238.312 48.7777 236.688 52.0094C235.36 54.6537 244.987 64.2867 244.019 65.8669C242.862 67.7581 241.913 66.6127 239.578 67.3136C225.392 71.5682 239.291 86.8502 239.403 92.277C239.629 103.179 233.68 137.842 256.452 163.595C279.224 189.348 314.52 180.391 332.28 177.288C337.396 176.395 347.402 164.317 333.059 159.719C318.429 155.028 287.853 168.357 271.416 145.152C254.98 121.946 254.035 102.637 252.824 90.898Z" fill="#87BBD9"/>
<path fill-rule="evenodd" clip-rule="evenodd" d="M402.185 155.643C397.384 140.269 388.71 132.569 384.099 132.548C381.557 132.536 390.556 140.846 373.42 144.367C349.779 149.225 342.148 136.706 335.208 139.126C315.443 154.716 289.077 151.327 288.603 155.414C285.455 182.576 284.166 182.679 291.619 184.53C306.257 188.168 309.604 195.643 301.618 231.293C301.878 233.896 314.857 238.391 357.776 237.334C403.147 236.217 404.733 238.45 404.7 235.974C404.497 220.527 406.65 169.942 402.185 155.643Z" fill="white"/>
<path fill-rule="evenodd" clip-rule="evenodd" d="M343.626 78.9252C344.032 77.9888 343.861 77.3487 343.046 76.6409C342.332 76.021 341.343 76.3832 340.984 76.8303C340.172 77.8413 340.308 80.0981 341.698 80.2566C342.64 80.3636 343.288 79.7069 343.626 78.9252Z" fill="#083752"/>
<path fill-rule="evenodd" clip-rule="evenodd" d="M350.213 73.8866C347.315 70.5414 344.349 69.8412 341.883 69.9258C341.238 69.9477 340.687 70.4282 340.65 71.0084C340.615 71.59 341.282 71.7603 341.926 71.7319C343.874 71.6466 346.728 72.162 349.101 75.6201C349.429 76.0973 350.023 76.6357 350.55 76.2613C351.017 75.9311 351.005 74.8009 350.213 73.8866Z" fill="#0C5077"/>
<path fill-rule="evenodd" clip-rule="evenodd" d="M337.679 94.0608C337.538 94.022 337.593 92.6624 337.848 91.0632C338.017 89.9998 337.871 89.5164 340.148 90.1052C341.209 90.3794 341.448 92.0349 340.761 92.9999C340.171 93.8259 339.859 94.2953 337.679 94.0608Z" fill="white"/>
</g>
<defs>
<clipPath id="clip0_914_5156">
<rect width="440" height="220" rx="8" fill="white"/>
</clipPath>
</defs>
</svg>
