<svg width="240" height="240" viewBox="0 0 240 240" fill="none" xmlns="http://www.w3.org/2000/svg">
<path fill-rule="evenodd" clip-rule="evenodd" d="M41.8462 188.381C78.9539 219.256 148.778 212.705 180.134 195.137C233.374 165.307 229.562 54.0602 159.93 38.1153C-0.947521 1.27595 4.27735 157.121 41.8462 188.381Z" fill="#FDEDEC"/>
<path fill-rule="evenodd" clip-rule="evenodd" d="M123.697 91.9151C131.383 89.5145 134.073 83.6515 136.041 77.4817C138.92 68.459 136.077 51.9052 126.67 48.6508C112.561 43.7688 103.473 60.6882 100.104 69.5546C96.7359 78.421 99.2138 84.0065 98.8945 88.862C98.3851 96.609 93.7874 101.99 86.4667 105.67C76.9548 110.45 107.383 124.995 116.357 123.139C125.333 121.284 122.304 111.242 120.63 107.457C115.825 96.5957 117.88 93.7314 123.697 91.9151Z" fill="#88BCDA"/>
<path fill-rule="evenodd" clip-rule="evenodd" d="M137.844 60.1508C137.214 69.6565 112.486 51.0261 109.178 59.4758C103.137 74.9108 98.7086 67.4102 99.1716 80.8798C99.5457 91.7812 75.2252 60.5655 103.57 43.2321C114.508 36.543 139.084 41.4661 137.844 60.1508Z" fill="#0B5077"/>
<path fill-rule="evenodd" clip-rule="evenodd" d="M116.974 71.4987C116.968 70.6899 117.306 70.2766 118.159 70.0129C118.905 69.7824 119.544 70.3528 119.673 70.7906C119.966 71.7789 119.13 73.3826 118.016 73.0673C117.261 72.8534 116.979 72.1731 116.974 71.4987Z" fill="#083752"/>
<path fill-rule="evenodd" clip-rule="evenodd" d="M129.904 72.5045C129.899 71.8142 130.188 71.4612 130.916 71.2366C131.553 71.0399 132.098 71.5267 132.208 71.9003C132.458 72.7436 131.744 74.1122 130.794 73.8432C130.15 73.661 129.909 73.0801 129.904 72.5045Z" fill="#083752"/>
<path fill-rule="evenodd" clip-rule="evenodd" d="M125.547 82.7882C127.41 81.4097 126.372 80.9871 124.976 81.5588C123.287 82.2497 122.036 80.1571 120.952 81.5197C120.228 82.4298 123.643 84.1985 125.547 82.7882Z" fill="white"/>
<path fill-rule="evenodd" clip-rule="evenodd" d="M112.983 67.1953C115.614 66.0261 118.327 65.8764 120.557 67.2118C121.011 67.4834 121.201 68.0365 120.981 68.4466C120.761 68.8579 120.212 68.7049 119.764 68.426C118.406 67.5821 116.311 67.4669 113.154 68.8679C112.718 69.0613 112.067 69.1891 111.847 68.7215C111.654 68.3081 112.073 67.5993 112.983 67.1953Z" fill="#0B5077"/>
<path fill-rule="evenodd" clip-rule="evenodd" d="M132.032 66.7138C133.258 66.2879 134.395 66.1647 135.52 66.3422C136.668 66.5231 136.471 67.204 136.242 67.6001C135.923 68.1526 133.641 67.6379 132.164 68.0698C130.746 68.4838 128.434 69.7662 128.611 73.6573C128.784 77.4542 126.495 77.9563 126.137 77.4966C125.669 76.8952 126.797 76.8064 127.247 76.4686C128.167 75.779 127.271 71.8363 127.941 70.218C128.751 68.2626 129.764 67.5028 132.032 66.7138Z" fill="#0B5077"/>
<path fill-rule="evenodd" clip-rule="evenodd" d="M101.878 72.1815C98.6035 70.234 97.0245 71.5879 96.093 72.6061C93.8115 75.1001 95.2108 77.7206 99.0228 79.1229C101.408 79.9999 103.952 73.4155 101.878 72.1815Z" fill="#88BCDA"/>
<path fill-rule="evenodd" clip-rule="evenodd" d="M74.307 129.328C68.6425 142.395 80.9086 174.245 67.8359 203.06C67.8359 203.06 73.0417 205.931 96.8728 209.353C120.531 212.752 140.601 209.353 140.601 208.029C140.601 195.582 138.569 170.585 137.604 155.899C135.851 129.217 123.186 103.852 119.732 104.862C118.133 105.329 125.579 118.797 113.637 116.631C105.081 115.08 97.315 104.847 90.324 103.344C87.8614 102.814 85.7693 102.887 74.307 129.328Z" fill="#FFD7CA"/>
<path fill-rule="evenodd" clip-rule="evenodd" d="M81.219 193.596C84.838 203.243 87.917 204.703 93.617 203.46C97.2055 202.678 96.1997 200.104 93.415 193.03C93.1394 192.329 96.8501 196.545 97.422 195.362C98.6367 192.854 96.8966 193.665 91.2883 186.229C87.9122 181.752 85.0039 173.697 83.3589 159.742C82.1651 149.609 85.0969 137.439 88.067 125.707C85.1413 125.878 78.0088 124.96 74.042 124.168C68.644 137.396 67.6112 151.316 71.3552 165.943C74.2489 177.249 76.5762 181.22 81.219 193.596Z" fill="#88BCDA"/>
<path fill-rule="evenodd" clip-rule="evenodd" d="M70.5 125.33C71.3225 122.915 74.7531 111.796 81.3734 106.295C86.5493 101.994 93.5725 101.724 96.5417 108.807C98.0674 112.447 89.8986 128.584 88.6458 130.706C86.4163 134.48 69.1215 129.379 70.5 125.33Z" fill="#FFD7CA"/>
<path fill-rule="evenodd" clip-rule="evenodd" d="M132.875 159.98C156.222 149.986 157.135 137.458 161.972 124.076C167.747 108.101 155.938 105.894 150.698 116.98C142.262 134.829 138.982 144.058 126.532 149.56C122.826 151.198 124.798 163.437 132.875 159.98Z" fill="#509BC8"/>
<path fill-rule="evenodd" clip-rule="evenodd" d="M131.518 37.8107C137.205 31.4061 147.939 37.0075 156.218 34.8453C182.92 27.869 197.871 41.9069 197.573 56.3139C196.878 89.8917 169.814 76.5856 153.066 75.0334C136.368 73.4865 119.173 51.7116 131.518 37.8107Z" fill="#0D6391"/>
<path fill-rule="evenodd" clip-rule="evenodd" d="M162.223 90.0617C149.611 86.0859 149.847 80.3615 146.814 72.2658C141.857 59.0318 143.504 47.9488 153.931 42.7305C169.571 34.9034 183.111 48.2995 186.047 59.6458C189.078 71.3626 189.524 76.7814 188.131 82.6375C185.609 93.2441 170.888 92.7929 162.223 90.0617Z" fill="#88BCDA"/>
<path fill-rule="evenodd" clip-rule="evenodd" d="M158.961 82.3857C147.66 74.9099 190.452 76.4171 189.965 82.6186C189.188 92.5133 197.083 99.6344 204.398 107.072C213.704 116.536 184.681 123.593 174.156 119.484C163.631 115.376 161.776 108.768 162.716 103.71C163.323 100.442 166.726 87.5219 158.961 82.3857Z" fill="#88BCDA"/>
<path fill-rule="evenodd" clip-rule="evenodd" d="M166.821 67.0521C166.071 67.6516 165.767 66.2264 164.265 66.4997C161.487 67.0052 162.544 68.7148 161.306 68.2775C160.305 67.9242 161.356 65.1506 164.372 65.0348C166.413 64.9568 167.311 66.6591 166.821 67.0521Z" fill="#0B5077"/>
<path fill-rule="evenodd" clip-rule="evenodd" d="M151.743 68.9236C150.366 69.2128 150.135 70.2826 149.453 69.6924C149.024 69.3219 149.465 68.1839 151.267 67.6989C153.104 67.2054 154.571 67.6248 155.274 68.8231C157.035 71.8229 155.659 76.097 154.903 76.1652C152.882 76.3478 155.398 71.4458 154.001 69.6369C153.256 68.6702 152.317 68.8032 151.743 68.9236Z" fill="#0B5077"/>
<path fill-rule="evenodd" clip-rule="evenodd" d="M185.708 57.9358C189.746 56.8408 191.073 59.0222 191.797 60.5665C193.568 64.3517 191.36 66.932 186.893 67.1848C184.098 67.3429 183.15 58.6299 185.708 57.9358Z" fill="#88BCDA"/>
<path fill-rule="evenodd" clip-rule="evenodd" d="M149.301 78.9296C150.74 82.1819 152.895 78.0952 155.166 76.7739C156.751 75.8516 158.281 75.3137 162.113 75.7682C168.132 76.4821 182.674 87.5386 182.078 65.7743C181.618 49.0515 176.719 48.9874 166.711 54.7422C159.279 59.0164 140.147 62.265 140.249 50.4648C140.295 45.1638 154.012 34.927 170.003 36.9596C180.111 38.2445 186.621 57.0824 188.549 64.9856C192.651 81.8168 189.901 93.3491 166.333 97.9163C146.186 101.821 147.861 75.6773 149.301 78.9296Z" fill="#0D6391"/>
<path fill-rule="evenodd" clip-rule="evenodd" d="M157.066 79.9369C157.183 79.3288 158.36 79.8449 159.779 79.6153C161.112 79.3996 162.392 78.4568 162.516 78.5984C163.06 79.2236 162.643 80.1592 159.86 80.6739C158.489 80.928 156.948 80.5443 157.066 79.9369Z" fill="#88BCDA"/>
<path fill-rule="evenodd" clip-rule="evenodd" d="M218.635 153.39C214.857 179.745 215.543 187.048 213.424 198.05C210.582 212.808 137.923 213.488 138.438 207.339C139.692 192.382 140.479 184.713 139.765 169.398C137.75 126.1 158.513 99.982 162.448 101.148C165.785 102.136 157.215 107.711 171.397 109.175C184.873 110.565 197.547 98.9179 204.131 101.7C205.874 102.436 225.233 107.357 218.635 153.39Z" fill="white"/>
<path fill-rule="evenodd" clip-rule="evenodd" d="M114.654 166.243C120.742 180.814 123.115 177.309 135.062 174.364C138.947 173.407 138.039 167.531 134.976 159.698C134.054 157.34 129.391 146.288 128.613 144.618C125.011 136.893 122.578 135.969 118.088 136.687C113.072 137.488 108.275 137.916 105.812 140.494C104.44 141.929 106.357 145.918 107.485 149.087C108.384 151.616 113.393 163.226 114.654 166.243Z" fill="#FEA992"/>
<path fill-rule="evenodd" clip-rule="evenodd" d="M114.397 166.472C120.274 180.812 122.261 177.477 132.748 174.974C136.159 174.159 135.16 168.423 132.186 160.72C131.292 158.401 126.794 147.523 126.049 145.875C122.602 138.261 120.416 137.29 116.461 137.853C112.045 138.482 107.808 138.754 105.711 141.185C104.543 142.539 106.374 146.472 107.478 149.586C108.359 152.069 113.18 163.501 114.397 166.472Z" fill="#FE6340"/>
<path fill-rule="evenodd" clip-rule="evenodd" d="M116.028 150.727C116.028 150.727 114.639 153.259 117.417 153.699C120.195 154.139 120.31 153.589 120.195 152.048C120.079 150.507 117.417 149.186 116.028 150.727Z" fill="#FEA992"/>
<path fill-rule="evenodd" clip-rule="evenodd" d="M142.18 162.289C137.536 159.255 135.727 150.504 131.397 150.504C131.282 150.504 134.136 156.964 133.713 156.833C129.069 155.394 120.274 154.55 120.884 157.996C121.952 164.025 121.579 164.27 130.638 169.504C137.295 173.349 151.908 192.277 172.435 187.582C198.01 181.732 208.089 157.824 214.122 145.762C215.357 143.293 210.129 129.581 201.973 135.489C192.368 142.445 188.407 167.323 169.324 171.591C157.084 174.328 151.59 168.435 142.18 162.289Z" fill="#88BCDA"/>
<path fill-rule="evenodd" clip-rule="evenodd" d="M189.633 144.018C187.142 149.312 204.234 162.411 209.393 159.355C213.924 156.67 218.943 144.421 216.716 133.781C214.445 122.929 206.777 124.919 201.439 127.176C195.189 129.818 191.034 141.042 189.633 144.018Z" fill="white"/>
<path fill-rule="evenodd" clip-rule="evenodd" d="M108.241 157.022C106.673 163.107 111.269 169.588 113.733 169.761C117.512 170.025 118.691 170.357 118.016 166.458C116.623 158.423 112.457 160.168 111.418 157.322C110.434 154.625 110.087 153.634 109.914 153.745C108.856 154.415 108.63 155.512 108.241 157.022Z" fill="#509BC8"/>
</svg>
