<svg width="240" height="240" viewBox="0 0 240 240" fill="none" xmlns="http://www.w3.org/2000/svg">
<mask id="mask0_905_3367" style="mask-type:luminance" maskUnits="userSpaceOnUse" x="29" y="37" width="179" height="168">
<path fill-rule="evenodd" clip-rule="evenodd" d="M29 37.3037H207.436V204.897H29V37.3037Z" fill="white"/>
</mask>
<g mask="url(#mask0_905_3367)">
<path fill-rule="evenodd" clip-rule="evenodd" d="M186.594 184.047C159.434 197.729 90.7979 215.051 62.4186 197.43C14.231 167.51 16.7154 57.5701 79.2738 42.3747C223.807 7.26637 223.82 165.294 186.594 184.047Z" fill="#C9DBE9"/>
</g>
<path fill-rule="evenodd" clip-rule="evenodd" d="M84.4105 156.916C107.942 150.863 110.956 140.295 117.754 127.917C125.871 113.142 115.203 109.063 108.418 119.116C97.494 135.303 92.8601 143.849 80.281 147.246C76.5387 148.257 76.2708 159.009 84.4105 156.916Z" fill="#89BCDA"/>
<path fill-rule="evenodd" clip-rule="evenodd" d="M114.918 124.136C109.702 121.549 104.411 119.664 106.108 117.127C113.373 106.258 127.44 97.2556 133.131 96.3828C133.131 96.3828 119.818 126.566 114.918 124.136Z" fill="#FEFEFE"/>
<mask id="mask1_905_3367" style="mask-type:luminance" maskUnits="userSpaceOnUse" x="122" y="27" width="53" height="59">
<path fill-rule="evenodd" clip-rule="evenodd" d="M122.757 27.0938H174.299V85.0837H122.757V27.0938Z" fill="white"/>
</mask>
<g mask="url(#mask1_905_3367)">
<path fill-rule="evenodd" clip-rule="evenodd" d="M124.942 40.7833C126.43 36.3796 124.948 24.9559 138.708 28.1331C147.456 30.1508 154.294 24.4954 161.607 28.6752C167.118 31.8273 169.521 33.2024 173.111 47.324C176.321 59.9617 172.642 63.2206 166.704 72.5533C161.249 81.1222 162.325 78.2213 160.023 83.7447C157.396 90.0426 136.801 72.2624 131.166 68.9345C126.798 66.3559 118.918 58.6117 124.942 40.7833Z" fill="#0B5178"/>
</g>
<path fill-rule="evenodd" clip-rule="evenodd" d="M132.505 81.8144C125.131 77.5656 123.682 70.6565 123.048 63.5737C122.123 53.2154 128.792 35.9626 139.215 34.4765C154.854 32.2495 160.392 52.4702 161.857 62.7658C163.326 73.0614 159.511 78.5556 158.743 83.8656C157.518 92.3381 161.039 99.1363 167.747 104.687C176.464 111.897 143.987 121.613 135.163 117.674C126.336 113.737 131.63 103.356 133.901 99.4377C140.519 88.0244 138.087 85.0293 132.505 81.8144Z" fill="#89BCDA"/>
<path fill-rule="evenodd" clip-rule="evenodd" d="M125.831 41.1148C125.138 51.5946 151.324 40.9955 154.685 50.3576C157.773 58.9536 163.614 58.3697 161.569 73.2155C159.93 85.1311 172.551 46.136 155.177 35.1581C143.619 27.8576 126.679 28.295 125.831 41.1148Z" fill="#0B5178"/>
<path fill-rule="evenodd" clip-rule="evenodd" d="M163.219 97.1159C165.607 96.9422 176.185 97.6203 183.023 125.221C186.402 138.861 188.187 150.528 185.118 165.135C182.337 178.371 173.056 186.318 143.622 191.39C121.26 195.241 111.534 199.115 111.126 186.754C110.72 174.39 110.316 156.683 111.107 142.084C112.625 114.12 132.898 93.5494 135.987 95.0291C137.418 95.7157 126.204 108.667 137.722 108.226C145.977 107.91 156.442 97.6057 163.219 97.1159Z" fill="#FEFEFE"/>
<path fill-rule="evenodd" clip-rule="evenodd" d="M142.692 61.1884C142.928 60.3281 142.702 59.7965 141.911 59.2837C141.218 58.8337 140.406 59.2691 140.149 59.7002C139.571 60.6735 139.962 62.6074 141.185 62.5761C142.014 62.553 142.493 61.9063 142.692 61.1884Z" fill="#0B3752"/>
<path fill-rule="evenodd" clip-rule="evenodd" d="M127.488 56.3592C127.691 55.6246 127.499 55.1704 126.823 54.733C126.23 54.3499 125.537 54.7204 125.32 55.0888C124.826 55.9197 125.161 57.5711 126.203 57.5418C126.911 57.523 127.321 56.9704 127.488 56.3592Z" fill="#0B3752"/>
<path fill-rule="evenodd" clip-rule="evenodd" d="M131.568 69.5177C130.069 67.544 131.243 67.3745 132.499 68.3645C134.019 69.5596 135.888 67.6717 136.602 69.4173C137.079 70.5852 133.102 71.5396 131.568 69.5177Z" fill="#FEFEFE"/>
<path fill-rule="evenodd" clip-rule="evenodd" d="M148.676 57.0978C146.185 55.3292 143.405 54.6531 140.833 55.6766C140.308 55.8838 140 56.449 140.149 56.9345C140.293 57.4243 140.892 57.3615 141.411 57.1438C142.985 56.4866 145.176 56.7587 148.165 58.879C148.577 59.172 149.228 59.4336 149.546 58.969C149.831 58.5566 149.536 57.709 148.676 57.0978Z" fill="#0B5178"/>
<path fill-rule="evenodd" clip-rule="evenodd" d="M129.857 51.8753C128.027 50.9083 125.407 51.2641 124.402 51.5865C123.396 51.9067 122.904 52.6874 123.067 53.1583C123.251 53.6941 123.787 53.1897 124.266 53.0348C125.422 52.6602 128.569 52.7397 129.449 53.1227C131.449 53.9955 131.583 55.3706 130.292 59.4667C129.032 63.4644 131.217 64.6239 131.713 64.2304C132.36 63.7176 131.238 63.3158 130.876 62.8344C130.139 61.8486 132.05 58.1146 132.27 56.2079C132.527 53.9788 132.063 53.0453 129.857 51.8753Z" fill="#0B5178"/>
<mask id="mask2_905_3367" style="mask-type:luminance" maskUnits="userSpaceOnUse" x="71" y="142" width="82" height="69">
<path fill-rule="evenodd" clip-rule="evenodd" d="M71.6865 142.75H152.105V210.802H71.6865V142.75Z" fill="white"/>
</mask>
<g mask="url(#mask2_905_3367)">
<path fill-rule="evenodd" clip-rule="evenodd" d="M71.7248 187.606C70.2513 212.904 111.704 211.223 128.758 210.455C143.585 209.787 149.28 201.591 150.785 188.097C151.237 184.037 152.202 164.825 152.097 161.884C151.607 148.28 132.236 144.973 128.381 144.406C116.518 142.662 98.5992 141.77 86.3027 144.424C79.4522 145.902 74.4478 152.418 73.4599 157.82C72.6688 162.129 72.0304 182.367 71.7248 187.606Z" fill="#EB6446"/>
</g>
<path fill-rule="evenodd" clip-rule="evenodd" d="M81.4666 158.007C84.062 160.749 99.7366 174.276 106.606 174.429C115.541 174.626 131.515 168.477 141.639 161.496C151.765 154.518 142.472 155.506 133.595 160.021C127.331 163.206 110.773 169.393 107.594 169.289C102.083 169.102 89.1773 157.139 85.8536 155.475C81.1108 153.099 77.1215 153.424 81.4666 158.007Z" fill="#FEFEFE"/>
<path fill-rule="evenodd" clip-rule="evenodd" d="M152.414 183.906C147.062 186.11 141.92 180.475 140.4 181.403C139.76 181.79 143.153 185.725 142.876 185.825C138.242 187.514 134.569 185.986 134.278 189.124C133.665 195.744 138.91 197.031 146.801 196.227C154.696 195.426 168.687 191.259 181.007 182.993C200.254 170.083 188.127 135.703 183.15 123.572C176.262 106.784 160.973 114.568 165.571 124.991C170.079 135.212 182.259 160.69 172.269 170.822C166.866 176.3 161.891 180.002 152.414 183.906Z" fill="#89BCDA"/>
<path fill-rule="evenodd" clip-rule="evenodd" d="M165.261 135.72C167.253 140.743 188.142 135.362 187.179 130.043C186.603 126.868 183.485 112.506 176.663 104.95C171.332 99.0436 162.862 97.3022 159 107.238C157.115 112.081 164.139 132.894 165.261 135.72Z" fill="#FEFEFE"/>
<path fill-rule="evenodd" clip-rule="evenodd" d="M69.6241 162.736C66.2941 167.433 66.9618 173.767 70.0114 175.569C73.0609 177.371 75.7148 177.605 76.3427 174.089C77.6341 166.847 72.8558 166.966 73.31 164.281C74.0467 159.942 73.8876 160.478 72.2467 160.258C70.6058 160.041 70.4509 161.571 69.6241 162.736Z" fill="#89BCDA"/>
<path fill-rule="evenodd" clip-rule="evenodd" d="M165.023 61.1624C165.415 63.2386 163.734 65.9596 162.277 66.2317C160.825 66.5079 160.151 64.2307 159.757 62.1545C159.368 60.0782 157.497 56.7 161.681 57.8993C163.104 58.3075 164.632 59.0861 165.023 61.1624Z" fill="#89BCDA"/>
</svg>
