<svg width="240" height="240" viewBox="0 0 240 240" fill="none" xmlns="http://www.w3.org/2000/svg">
<path fill-rule="evenodd" clip-rule="evenodd" d="M221.57 125.154C223.817 231.062 79.9741 219.002 45.7489 172.697C-24.2115 44.3528 108.235 18.205 156.011 27.2053C183.478 32.3797 220.052 53.5592 221.57 125.154Z" fill="#F5F5F5"/>
<path fill-rule="evenodd" clip-rule="evenodd" d="M126.044 174.869C136.302 161.573 139.542 146.565 142.043 126.798C143.34 116.548 123.803 115.294 121.89 127.924C120.026 140.24 122.394 154.155 112.573 165.249C102.121 177.058 90.0291 184.909 82.2468 187.044C77.3764 188.381 70.2456 187.242 69.7294 189.152C69.4673 190.117 71.189 189.418 71.0959 190.334C71.0431 190.861 69.6231 190.801 68.6244 191.107C67.2361 191.533 65.5488 193.169 65.5435 193.825C65.5211 196.499 68.6178 199.76 72.2406 198.612C73.846 198.104 87.0644 193.786 88.8514 193.143C94.5173 191.105 117.867 185.468 126.044 174.869Z" fill="#87BBD9"/>
<path fill-rule="evenodd" clip-rule="evenodd" d="M141.837 112.962C132.805 109.801 117.374 120.586 118.995 134.009C119.574 138.794 128.014 141.082 134.639 141.677C140.505 142.204 138.746 140.649 142.311 128.169C143.998 122.263 153.108 116.908 141.837 112.962Z" fill="white"/>
<path fill-rule="evenodd" clip-rule="evenodd" d="M135.923 97.2581C131.561 95.622 128.036 92.1815 125.548 81.7969C120.564 61.0047 123.644 55.1199 134.746 51.5627C151.4 46.228 158.424 54.965 161.953 65.0118C165.482 75.058 162.006 87.3885 164.146 95.0076C165.893 101.23 168.35 106.139 176.986 111.923C186.942 118.591 158.899 145.272 142.311 127.195C135.308 119.563 136.954 118.411 139.273 114.246C141.591 110.083 144.564 100.499 135.923 97.2581Z" fill="#87BBD9"/>
<path fill-rule="evenodd" clip-rule="evenodd" d="M124.84 64.0187C131.29 65.5446 154.148 53.3161 155.398 65.5325C156.861 79.8178 161.221 69.3121 162.82 84.2896C163.768 93.1764 180.234 51.5429 159.138 44.9736C136.938 38.0594 131.62 46.8608 125.511 45.6995C116.891 44.0602 117.928 62.3839 124.84 64.0187Z" fill="#0C5077"/>
<path fill-rule="evenodd" clip-rule="evenodd" d="M143.422 75.6673C143.459 74.9445 143.136 74.5474 142.292 74.2441C141.553 73.9783 140.891 74.4372 140.745 74.8183C140.414 75.68 141.19 77.1804 142.318 76.9873C143.083 76.856 143.392 76.2702 143.422 75.6673Z" fill="#083752"/>
<path fill-rule="evenodd" clip-rule="evenodd" d="M130.532 76.6354C130.463 75.942 130.136 75.6157 129.383 75.4608C128.722 75.325 128.227 75.8668 128.156 76.2524C127.996 77.1243 128.857 78.4284 129.782 78.0657C130.409 77.8203 130.589 77.2135 130.532 76.6354Z" fill="#083752"/>
<path fill-rule="evenodd" clip-rule="evenodd" d="M138.344 89.2137C135.63 89.7197 133.59 87.1964 134.286 86.6317C136.261 85.0268 140.672 85.8382 140.707 85.8764C141.132 86.364 139.736 88.9543 138.344 89.2137Z" fill="white"/>
<path fill-rule="evenodd" clip-rule="evenodd" d="M144.745 72.0342C141.987 71.0992 139.339 71.8564 137.859 73.0547C137.447 73.3886 137.296 73.9419 137.557 74.3339C137.82 74.7271 138.342 74.5072 138.777 74.2026C139.941 73.3848 141.431 72.6104 144.74 73.7303C145.197 73.8851 145.864 73.954 146.038 73.4638C146.191 73.0311 145.699 72.3574 144.745 72.0342Z" fill="#0C5077"/>
<path fill-rule="evenodd" clip-rule="evenodd" d="M130.621 72.0149C128.955 71.2959 127.03 71.6458 125.368 72.2864C124.583 72.5891 124.47 73.2654 124.681 73.6032C124.92 73.9856 125.329 73.8581 125.701 73.7026C127.535 72.9378 128.838 72.5005 130.086 73.1048C131.948 74.0066 132.518 74.869 131.94 78.1508C131.304 81.7526 134.087 82.0935 134.412 81.7226C134.838 81.2369 133.647 80.7455 133.286 80.4205C132.298 79.5307 133.749 76.8894 133.326 74.9844C132.88 72.9786 131.963 72.5942 130.621 72.0149Z" fill="#0C5077"/>
<path fill-rule="evenodd" clip-rule="evenodd" d="M158.602 82.6253C163.232 81.9542 163.4 79.1287 163.162 77.6806C162.577 74.1324 159.668 73.263 156.258 75.1044C154.124 76.2568 156.298 82.9593 158.602 82.6253Z" fill="#87BBD9"/>
<path fill-rule="evenodd" clip-rule="evenodd" d="M190.419 159.17C190.419 175.019 187.724 186.807 190.419 199.702C192.427 209.304 190.277 207.544 163.862 209.378C137.877 211.184 119.301 213.438 120.496 208.894C125.623 189.406 127.065 173.127 125.521 143.81C124.29 120.436 132.567 110.671 139.296 112.682C141.631 113.38 132.517 119.725 147.931 120.034C161.652 120.309 173.014 109.115 174.806 109.477C197.428 114.045 190.419 142.582 190.419 159.17Z" fill="white"/>
<path fill-rule="evenodd" clip-rule="evenodd" d="M166.226 191.571C179.262 178.151 185.855 162.162 192.816 140.928C196.426 129.916 177.682 126.584 172.928 140.121C168.292 153.32 167.413 168.685 155.307 179.756C142.423 191.539 128.845 198.856 120.776 200.393C115.726 201.355 109.041 199.399 108.1 201.424C107.625 202.446 109.462 201.86 109.161 202.846C108.989 203.413 107.62 203.204 106.577 203.436C105.127 203.76 103.109 205.369 102.953 206.08C102.319 208.986 104.309 211.466 108.1 210.584C110.899 211.226 124.084 209.032 125.972 208.513C131.958 206.867 155.835 202.269 166.226 191.571Z" fill="#87BBD9"/>
<path fill-rule="evenodd" clip-rule="evenodd" d="M183 113C193 119 196.959 137.253 190.501 149.295C188.199 153.588 176.896 151.817 170.445 150.041C164.733 148.468 166.96 147.626 168.193 134.641C168.776 128.497 176 108.8 183 113Z" fill="white"/>
<path fill-rule="evenodd" clip-rule="evenodd" d="M24.0321 154.479C22.3126 154.386 19.5163 155.31 20.0715 161.121C20.0715 161.121 27.1344 194.407 28.6127 203.201C28.6127 214.917 78.367 212.587 117.02 210.654C116.208 196.217 108.446 162.214 108.446 162.214C108.161 160.789 107.44 156.461 102.092 156.352L24.0321 154.479Z" fill="#CCCCCC"/>
<path fill-rule="evenodd" clip-rule="evenodd" d="M73.4344 185.613C73.1615 189.644 70.2143 192.743 64.3045 192.376C58.3961 192.009 55.8923 188.573 56.1652 184.541C56.4387 180.51 59.7275 179.707 65.295 177.779C70.6274 175.931 73.7079 181.582 73.4344 185.613Z" fill="#F5F5F5"/>
<path fill-rule="evenodd" clip-rule="evenodd" d="M66.3683 75.0022C77.1609 69.8646 83.0506 55.7866 81.367 46.1457C78.5087 29.7751 47.912 23.5955 37.7702 39.5902C18.266 70.3505 53.6209 81.0709 66.3683 75.0022Z" fill="#FD6340"/>
<path fill-rule="evenodd" clip-rule="evenodd" d="M61.9239 66.6029C52.9072 74.5044 40.76 64.0492 48.5604 56.6681C51.3371 54.0406 54.2138 52.195 54.7154 47.0262C55.0921 43.144 60.7472 44.6772 59.9753 49.1386C58.9416 55.1127 56.5868 56.4011 53.46 59.9624C51.0634 62.6921 54.4053 66.1765 59.3564 62.1722C62.8665 59.3333 65.5144 63.4565 61.9239 66.6029Z" fill="white"/>
<path fill-rule="evenodd" clip-rule="evenodd" d="M59.737 42.264C61.9209 41.6862 62.6207 38.8311 60.7873 37.5364C58.4682 35.8987 55.3425 37.6919 55.5235 40.2456C55.647 41.989 57.9735 42.7306 59.737 42.264Z" fill="white"/>
<path fill-rule="evenodd" clip-rule="evenodd" d="M80.9128 79.9448C75.6502 84.8725 74.8414 94.0412 77.5733 99.274C82.2117 108.16 100.927 106.112 103.829 95.0636C109.41 73.8157 87.1285 74.1242 80.9128 79.9448Z" fill="#FD6340"/>
<path fill-rule="evenodd" clip-rule="evenodd" d="M85.0042 83.9589C88.7404 77.7677 97.6349 81.5537 94.5026 87.2232C93.3875 89.2414 92.072 90.8285 92.7296 93.891C93.2235 96.1911 89.6928 96.3448 89.32 93.6394C88.8209 90.0169 89.9385 88.8455 91.0838 86.2265C91.9617 84.2191 89.4033 82.8281 87.2906 86.0355C85.7927 88.3094 83.5164 86.4242 85.0042 83.9589Z" fill="white"/>
<path fill-rule="evenodd" clip-rule="evenodd" d="M90.7149 97.5467C89.5655 98.2785 89.6858 100.047 90.9764 100.456C92.6089 100.973 94.0772 99.3703 93.5058 97.9357C93.1158 96.9563 91.643 96.9559 90.7149 97.5467Z" fill="white"/>
</svg>
