<svg width="20" height="19" viewBox="0 0 20 19" fill="#167DB7" xmlns="http://www.w3.org/2000/svg">
<path fill-rule="evenodd" clip-rule="evenodd" d="M18.5544 0.00014613H2.36436C1.60053 -0.00542793 0.975326 0.606381 0.964355 1.37015V17.6201C0.966998 17.9888 1.11598 18.3413 1.37854 18.6001C1.64109 18.8589 1.9957 19.0028 2.36436 19.0001H18.5544C18.923 19.0055 19.2787 18.8641 19.5431 18.6072C19.8076 18.3503 19.9591 17.9988 19.9644 17.6301V1.37015C19.9591 1.00148 19.8076 0.650016 19.5431 0.393083C19.2787 0.13615 18.923 -0.00519653 18.5544 0.00014613ZM6.55436 16.1901H3.78436V7.12015H6.59436L6.55436 16.1901ZM5.19436 5.88015C4.29413 5.88015 3.56436 5.15037 3.56436 4.25015C3.56436 3.34992 4.29413 2.62015 5.19436 2.62015C6.09458 2.62015 6.82436 3.34992 6.82436 4.25015C6.82436 5.15037 6.09458 5.88015 5.19436 5.88015V5.88015ZM17.1944 16.1901H14.3344V11.7801C14.3344 10.7301 14.3344 9.38015 12.8744 9.38015C11.4144 9.38015 11.1844 10.5001 11.1844 11.7001V16.1901H8.36436V7.12015H11.0644V8.36015V8.36015C11.6232 7.4247 12.6453 6.86581 13.7344 6.90015C16.5844 6.90015 17.1144 8.78015 17.1144 11.2201L17.1944 16.1901Z" fill="#167DB7"/>
</svg>
