<svg width="240" height="240" viewBox="0 0 240 240" fill="none" xmlns="http://www.w3.org/2000/svg">
<path fill-rule="evenodd" clip-rule="evenodd" d="M55.9588 63.4722C33.0196 81.1063 22.9163 156.914 41.7625 186.872C73.7625 237.739 199.088 218.537 211.83 154.192C241.241 5.66956 95.8584 32.8003 55.9588 63.4722Z" fill="#FCF0C3"/>
<path fill-rule="evenodd" clip-rule="evenodd" d="M102.487 43.688C107.201 37.1264 110.868 37.9138 117.416 33.1893C126.08 26.9374 134.101 15.4592 153.035 21.9033C166.916 26.6277 166.916 36.339 171.63 36.0765C186.813 35.2313 197.035 51.0371 184.987 79.646C180.29 90.7999 165.758 95.5122 162.917 102.051C159.678 109.504 135.52 87.9363 128.881 83.8649C123.737 80.7106 89.4116 61.887 102.487 43.688Z" fill="#0B5077"/>
<path fill-rule="evenodd" clip-rule="evenodd" d="M93.7425 179.855C87.4699 178.498 83.2538 170.836 81.3031 170.485C79.3933 170.143 83.3454 177.69 83.5528 178.129C84.4926 180.119 71.4418 180.088 70.8306 183.8C68.4168 198.462 85.3081 189.865 89.4316 191.162C97.7146 193.765 121.396 207.485 149.825 195.484C178.253 183.483 166.126 150.819 170.87 135.53C172.236 131.125 167.146 119.869 157.975 130.4C148.621 141.142 139.635 174.432 133.76 179.721C125.362 187.281 103.048 181.868 93.7425 179.855Z" fill="#509BC8"/>
<path fill-rule="evenodd" clip-rule="evenodd" d="M143.525 97.5104C133.083 94.8322 131.138 88.8784 127.408 79.7813C117.734 56.1886 119.478 54.6327 131.497 47.881C149.526 37.7535 160.42 47.9372 167.439 60.4857C174.458 73.0343 173.806 81.1272 175.558 88.3073C178.354 99.7624 188.545 107.134 199.129 112.979C212.595 120.416 178.765 138.784 165.955 137.826C153.144 136.867 153.732 125.578 156.673 115.801C158.167 110.831 154.011 100.2 143.525 97.5104Z" fill="#88BCDA"/>
<path fill-rule="evenodd" clip-rule="evenodd" d="M116.464 50.0984C115.456 64.5908 139.292 63.4601 147.643 57.6696C158.81 49.9278 164.691 61.7031 175.994 90.1446C176.85 92.2984 188.97 38.0218 145.425 34.3619C126.619 32.7814 116.916 43.5887 116.464 50.0984Z" fill="#0B5077"/>
<mask id="mask0_905_3841" style="mask-type:luminance" maskUnits="userSpaceOnUse" x="117" y="112" width="108" height="108">
<path fill-rule="evenodd" clip-rule="evenodd" d="M117.498 112.41H224.843V219.819H117.498V112.41Z" fill="white"/>
</mask>
<g mask="url(#mask0_905_3841)">
<path fill-rule="evenodd" clip-rule="evenodd" d="M201.808 112.675C205.034 114.181 234.401 123.491 221.653 169.148C211.684 204.851 214.134 201.743 208.82 210.618C205.136 216.771 197.993 220.171 165.354 219.791C135.342 219.44 115.383 219.173 117.677 215.08C128.415 195.92 132.817 173.085 134.643 156.785C138.768 119.953 152.313 113.521 155.799 116.453C157.413 117.809 150.24 129.953 161.764 134.502C176.938 140.493 194.457 109.241 201.808 112.675Z" fill="white"/>
</g>
<path fill-rule="evenodd" clip-rule="evenodd" d="M29.1912 137.861C41.6447 157.728 59.9486 189.583 66.6664 197.244C73.3843 204.905 82.2986 185.28 83.6744 178.954C85.0507 172.628 67.746 145.766 58.981 130.907C50.2155 116.048 49.7485 108.806 40.2092 111.941C30.2323 115.22 13.1315 112.241 29.1912 137.861Z" fill="#CCCCCC"/>
<path fill-rule="evenodd" clip-rule="evenodd" d="M40.4978 137.552C49.6637 152.174 62.2651 176.056 67.2094 181.695C72.1538 187.333 76.6229 177.132 77.6355 172.476C78.648 167.82 62.7881 141.813 56.3366 130.877C49.8851 119.941 49.6701 115.948 42.6492 118.255C35.3059 120.668 28.6776 118.696 40.4978 137.552Z" fill="white"/>
<path fill-rule="evenodd" clip-rule="evenodd" d="M51.0688 144.04C49.2623 145.083 47.9227 147.762 50.4195 147.017C52.9158 146.272 55.7785 144.56 58.0718 143.461C60.3656 142.361 61.3015 139.778 59.0702 140.393C56.8384 141.009 53.3934 142.698 51.0688 144.04Z" fill="#0B5077"/>
<path fill-rule="evenodd" clip-rule="evenodd" d="M47.7397 138.633C45.9332 139.675 44.5936 142.355 47.0904 141.61C49.5867 140.865 52.4494 139.153 54.7427 138.053C57.0365 136.954 57.9724 134.371 55.7411 134.986C53.5093 135.601 50.0643 137.291 47.7397 138.633Z" fill="#0B5077"/>
<path fill-rule="evenodd" clip-rule="evenodd" d="M53.6603 149.278C51.8538 150.321 50.3627 152.987 52.859 152.241C55.3553 151.496 57.8856 150.007 60.1789 148.907C62.4722 147.807 63.893 145.016 61.6617 145.631C59.4299 146.247 55.9849 147.937 53.6603 149.278Z" fill="#0B5077"/>
<path fill-rule="evenodd" clip-rule="evenodd" d="M56.2525 154.515C53.6355 156.131 55.0857 157.521 55.7428 157.242C58.1418 156.225 57.553 156.675 59.8464 155.575C62.1402 154.476 63.0007 151.985 60.7694 152.6C58.5381 153.216 58.5362 153.105 56.2525 154.515Z" fill="#0B5077"/>
<path fill-rule="evenodd" clip-rule="evenodd" d="M63.121 169.457C62.343 171.13 66.5081 177.685 68.5842 177.677C70.0781 177.672 71.5792 174.838 73.8423 171.825C75.7453 169.292 76.3014 168.061 75.0945 166.448C73.8877 164.836 72.5243 162.618 70.1855 163.774C67.8472 164.931 64.2832 166.958 63.121 169.457Z" fill="#3DBA7A"/>
<path fill-rule="evenodd" clip-rule="evenodd" d="M39.1262 127.937C38.4107 129.105 40.9286 134.294 42.4605 134.464C43.5626 134.587 43.9296 134.201 46.2285 132.61C47.7195 131.578 47.5156 130.714 46.9282 129.098C46.4176 127.692 45.0742 124.919 43.2511 125.573C41.4284 126.227 40.1947 126.192 39.1262 127.937Z" fill="#157DB6"/>
<path fill-rule="evenodd" clip-rule="evenodd" d="M104.927 164.995C98.5667 161.265 94.2034 156.477 88.6489 154.718C79.1989 151.726 65.506 152.757 67.0313 155.747C68.279 158.194 80.7499 156.266 81.4004 157.858C82.1799 159.763 80.8054 159.844 80.0495 161.979C75.4599 174.943 94.491 172.914 98.6081 175.808C106.877 181.62 129.522 205.098 161.237 202.165C192.952 199.231 205.59 167.869 212.998 152.859C215.132 148.534 211.587 134.409 200.295 142.634C188.778 151.023 181.993 181.248 155.651 180.831C129.309 180.415 114.363 170.528 104.927 164.995Z" fill="#88BCDA"/>
<path fill-rule="evenodd" clip-rule="evenodd" d="M186.446 149.699C183.811 155.603 200.748 171.86 206.917 169.964C213.086 168.068 221.799 149.823 218.248 138.176C215.348 128.666 199.675 128.082 192.484 139.413C189.012 144.886 187.927 146.381 186.446 149.699Z" fill="white"/>
<path fill-rule="evenodd" clip-rule="evenodd" d="M144.336 72.909C144.259 72.1489 143.916 71.793 143.127 71.6276C142.436 71.4827 141.923 72.0801 141.851 72.5032C141.689 73.4602 142.597 74.8848 143.561 74.4822C144.215 74.2087 144.399 73.5426 144.336 72.909Z" fill="#083752"/>
<path fill-rule="evenodd" clip-rule="evenodd" d="M129.157 74.2656C129.092 73.6173 128.798 73.3134 128.126 73.1722C127.536 73.0488 127.098 73.558 127.037 73.9197C126.898 74.7359 127.673 75.9517 128.497 75.6079C129.054 75.3748 129.212 74.8063 129.157 74.2656Z" fill="#083752"/>
<path fill-rule="evenodd" clip-rule="evenodd" d="M148.348 65.3563C144.55 64.538 142.099 65.6141 140.413 66.9789C139.972 67.3353 139.838 67.9647 140.119 68.3915C140.401 68.8193 140.959 68.5857 141.396 68.2256C142.718 67.1348 144.992 65.9873 148.482 67.1621C148.964 67.3248 149.665 67.3894 149.837 66.8471C149.99 66.3684 149.385 65.5799 148.348 65.3563Z" fill="#0B5077"/>
<path fill-rule="evenodd" clip-rule="evenodd" d="M128.534 68.4276C125.831 67.7572 123.649 68.4113 121.337 70.4349C120.538 71.1347 120.33 72.0134 120.654 72.3971C121.021 72.8318 121.643 72.5032 122.027 72.1677C124.801 69.7425 126.961 69.258 128.603 69.7467C131.053 70.4764 132.677 71.3908 132.95 75.7058C133.217 79.9173 135.683 80.2129 136.005 79.6648C136.426 78.9478 135.181 78.9026 134.7 78.3777C133.975 77.5845 134.3 73.4533 133.248 71.8333C132.046 69.9808 131.011 69.0417 128.534 68.4276Z" fill="#0B5077"/>
<path fill-rule="evenodd" clip-rule="evenodd" d="M140.294 85.6892C138.024 85.9647 135.181 84.6865 135.796 83.95C136.069 83.6225 137.197 84.0267 138.605 83.95C140.928 83.8241 142.961 82.1616 143.674 82.9201C144.174 83.4524 143.424 85.3096 140.294 85.6892Z" fill="white"/>
<path fill-rule="evenodd" clip-rule="evenodd" d="M164.838 65.7704C169.422 63.4738 170.878 64.8843 171.629 66.435C173.469 70.2345 170.32 74.2214 167.749 74.5274C165.082 74.845 162.556 66.9137 164.838 65.7704Z" fill="#88BCDA"/>
<path fill-rule="evenodd" clip-rule="evenodd" d="M58.6349 94.2265C73.8611 94.2266 85.4661 85.6581 87.2962 70.7154C90.7067 42.8685 57.0799 31.0778 40.0499 45.1891C16.5389 68.2524 41.3934 95.7939 58.6349 94.2265Z" fill="#FF6340"/>
<path fill-rule="evenodd" clip-rule="evenodd" d="M72.0659 78.0019C71.4355 79.166 70.0496 79.5922 68.9299 78.9664L54.8178 70.6512C54.0617 70.2125 53.5924 69.3702 53.5947 68.456V55.6196C53.5947 54.2419 54.6478 53.125 55.9467 53.125C57.2457 53.125 58.2988 54.2419 58.2988 55.6196V66.9926L71.1878 74.6093C72.292 75.2904 72.6819 76.7817 72.0659 77.9686V78.0019Z" fill="white"/>
</svg>
