<svg width="95" height="24" viewBox="0 0 95 24" fill="none" xmlns="http://www.w3.org/2000/svg">
<path fill-rule="evenodd" clip-rule="evenodd" d="M52.6303 5.5872e-05C52.8113 5.5872e-05 52.9128 0.119297 52.9354 0.270005L52.9402 0.336265L50.5971 19.0835C50.1176 22.9832 47.721 23.9563 44.7987 23.9985L44.594 24C43.6233 24 43.1138 23.9772 42.7758 23.9481L41.9841 23.8535C41.8296 23.8263 41.6995 23.7661 41.6694 23.558L41.6628 23.4594V23.3311L41.8383 21.8378C41.8889 21.3997 42.065 21.2579 42.4512 21.2579C42.8117 21.2327 43.3015 21.231 43.8427 21.2053L44.3842 21.1701C45.3593 21.088 45.9782 20.8571 46.3017 19.3795L46.3423 19.1796L48.6368 0.365319C48.6589 0.188724 48.7199 0.0793456 48.8829 0.0357777L48.9731 0.0194714L52.6303 5.5872e-05ZM61.1976 4.78605C63.5414 4.78605 65.0105 5.30217 65.8855 6.176C66.7623 7.0525 67.0204 8.26184 67.0204 9.75474C67.0204 11.3775 66.7367 13.6177 66.1701 15.0838C65.3184 17.4005 63.5667 18.9726 59.4432 18.9726C57.1228 18.9726 55.6794 18.4826 54.8034 17.6331C53.9024 16.7325 53.6187 15.4709 53.6187 13.9771C53.6187 12.3295 53.9529 9.88451 54.5715 8.39091C55.4746 6.2288 57.2529 4.78605 61.1976 4.78605ZM39.0164 4.78602C41.3617 4.78602 42.8308 5.30116 43.7069 6.17695C44.5829 7.05247 44.8411 8.26196 44.8411 9.75541C44.8411 11.3764 44.5567 13.6163 43.9912 15.0838C43.1403 17.4005 41.3873 18.9712 37.2644 18.9712C34.9441 18.9712 33.4999 18.4826 32.6239 17.6331C31.7229 16.7316 31.4378 15.47 31.4378 13.9772C31.4378 12.3294 31.7742 9.88364 32.3922 8.3899C33.2938 6.22878 35.0735 4.78602 39.0164 4.78602ZM90.412 4.81217C92.4734 4.81217 94.0572 5.24923 94.547 5.40371C94.6977 5.44701 94.7729 5.54328 94.7938 5.66397L94.8 5.73909V5.86717L94.2623 7.5668C94.211 7.74712 94.0338 7.82297 93.854 7.82297C93.836 7.82297 93.8179 7.81198 93.7924 7.80466L93.6275 7.7804C93.1809 7.70504 91.8732 7.43689 90.6508 7.43689C90.0067 7.43689 89.2244 7.51442 88.7352 7.90119C88.4416 8.14856 88.2733 8.47518 88.2358 8.84567L88.2278 9.03427C88.2278 10.1144 89.4319 10.1662 90.6167 10.3991C91.6477 10.5532 92.6962 10.81 93.3661 11.4797C93.8816 11.9685 94.1909 12.7148 94.1909 13.8485C94.1909 15.1091 93.8041 16.3964 92.9024 17.3489C91.7681 18.5339 89.9638 18.9711 87.9541 18.9711C85.7372 18.9711 83.7266 18.4307 83.2894 18.2241L83.2092 18.1812C83.1355 18.1418 83.056 18.0817 83.056 17.9158C83.056 17.8641 83.056 17.8242 83.0636 17.7727L83.0819 17.684L83.5994 16.0362C83.6755 15.8054 83.7779 15.7275 83.933 15.7275C83.9841 15.7275 84.0112 15.7275 84.0624 15.753L84.6649 15.9042C85.3985 16.0825 86.6319 16.3453 87.7726 16.3453C88.4947 16.3453 89.1652 16.2168 89.603 15.8303C89.99 15.5213 90.1445 15.0838 90.1445 14.6455C90.1445 14.1056 89.9641 13.8222 89.6033 13.6426C89.3454 13.5136 89.0223 13.437 88.6428 13.3661L87.5061 13.1591C86.6651 12.9945 85.7111 12.7444 85.0429 12.0968C84.5531 11.5819 84.2456 10.8877 84.2456 9.80531C84.2456 8.6725 84.557 7.46329 85.2773 6.58848C86.5671 5.04292 88.7633 4.81217 90.412 4.81217ZM74.125 0C74.3277 0 74.4812 0.111862 74.5164 0.312379L74.5241 0.403675V0.47994L74.0914 3.75627L73.8975 5.26314L74.1667 5.18861C74.6832 5.05445 75.8759 4.78613 77.1528 4.78613C78.8529 4.78613 80.0896 5.12164 80.8889 5.89407C81.6616 6.63955 82.0238 7.82361 82.0238 9.60006C82.0238 11.222 81.7654 13.0761 81.3027 14.6466C80.4242 17.5554 78.6468 18.9705 74.5231 18.9705C72.5114 18.9705 70.76 18.6865 69.7809 18.3525C68.7753 18.018 68.519 17.5794 68.519 16.883C68.519 16.6601 68.5419 16.4129 68.58 16.1281L68.6475 15.671L70.4648 0.64169C70.4877 0.320984 70.6121 0.114948 70.8932 0.0363333L71.0061 0.0128506L74.125 0ZM28.4463 0.0472118C30.3014 0.0472118 31.462 0.383421 31.8474 0.486785C32.0286 0.538466 32.0792 0.669346 32.0792 0.823413C32.0792 0.841013 32.0792 0.872146 32.0718 0.906093L32.0542 0.957785L31.5651 2.71803C31.5206 2.91702 31.4568 3.03565 31.3096 3.06548L31.2288 3.07296H31.1256C30.8164 2.93328 30.0171 2.86665 29.3223 2.86665C28.1712 2.86665 27.694 3.1218 27.518 4.07508L27.4927 4.23146L27.2865 5.86656H30.5581C30.7629 5.86656 30.8677 5.98345 30.8906 6.15022L30.8955 6.22456V6.27652L30.6501 8.30551C30.6277 8.50717 30.4964 8.62745 30.3085 8.65437L30.2248 8.66016H26.9502L25.5692 18.3567C25.5236 18.6224 25.3298 18.7005 25.125 18.7146L25.0479 18.7171H21.9995C21.8205 18.7171 21.6651 18.7167 21.6269 18.524L21.6182 18.4424L21.6909 17.9244L21.7129 17.7394H21.7165L22.9816 8.71812L23.5235 4.14039C23.8584 1.41147 25.4298 0.0472118 28.4463 0.0472118ZM15.5265 4.89834C17.3832 4.89834 18.7357 5.15577 19.5343 5.92722C19.9586 6.37613 20.2216 6.99733 20.2625 7.83173L20.2681 8.09002C20.2681 8.37336 20.2519 8.64839 20.2294 8.92002L20.1522 9.72959L19.0834 18.3473C19.0609 18.5498 18.9199 18.6811 18.7298 18.7108L18.6455 18.7172H15.501C15.2982 18.7172 15.1389 18.6424 15.1022 18.4863L15.0942 18.4143V18.3632L16.1176 9.99596C16.1566 9.72526 16.1907 9.4544 16.2053 9.19505L16.2129 8.914C16.2129 8.50194 16.1532 8.19031 15.9732 7.98512C15.7151 7.67657 15.3211 7.54555 14.7017 7.54555C13.9357 7.54555 13.1009 7.67231 12.5759 7.76888L12.0472 7.87631L10.7595 18.3473C10.7358 18.5498 10.595 18.6811 10.3873 18.7108L10.2943 18.7172H7.1508C6.94842 18.7172 6.75825 18.6424 6.71387 18.4863L6.70416 18.4143V18.3632L8.12586 7.13769C8.25479 6.15979 8.95466 5.85012 10.5007 5.49058C11.8411 5.18175 13.9045 4.89834 15.5265 4.89834ZM2.4569 0.139736H6.20419C6.35724 0.139736 6.40983 0.197101 6.42173 0.326874L6.42456 0.449825L4.24678 18.3473C4.22439 18.5498 4.08798 18.6811 3.89806 18.7108L3.81357 18.7172H0.386783C0.206431 18.7172 0.0455643 18.6401 0.00816558 18.4833L0 18.4113L2.15667 0.45206C2.17845 0.271419 2.21329 0.167777 2.37801 0.144688L2.4569 0.139736ZM75.9403 7.48964C75.18 7.48964 74.2531 7.67104 73.8178 7.76652L73.5697 7.82375L72.5641 16.0881L72.8623 16.1469C73.2086 16.2078 73.8228 16.2941 74.5231 16.2941C76.3797 16.2941 77.1528 15.7791 77.642 13.051C77.8481 11.9428 78.0033 10.7586 78.0033 9.62632C78.0033 8.88015 77.8995 8.36571 77.6684 8.03118C77.3328 7.59258 76.7906 7.48964 75.9403 7.48964ZM60.8609 7.46413C59.0491 7.46413 58.456 8.25113 58.1162 9.94223L58.078 10.1414C57.8445 11.4034 57.6398 12.8186 57.6398 14.1056C57.6398 14.9039 57.7423 15.4709 58.1282 15.8303C58.464 16.1401 58.9794 16.294 59.7781 16.294C61.7123 16.294 62.2532 15.3928 62.5874 13.462C62.8191 12.2269 63.0001 10.9135 63.0001 9.67792C63.0001 8.90493 62.897 8.36577 62.562 8.00413C62.2268 7.64474 61.7123 7.46413 60.8609 7.46413ZM38.6809 7.46424C36.7995 7.46424 36.2326 8.31406 35.897 10.1415C35.6646 11.4034 35.4597 12.8178 35.4597 14.1057C35.4597 14.9039 35.5635 15.47 35.949 15.8302C36.2831 16.1392 36.7995 16.294 37.5993 16.294C39.4623 16.294 40.032 15.4568 40.3714 13.6657L40.4082 13.4628C40.6399 12.2262 40.8206 10.9135 40.8206 9.67789C40.8206 8.9049 40.7161 8.36504 40.3833 8.00411C40.0476 7.64373 39.5313 7.46424 38.6809 7.46424Z" fill="#167DB7"/>
</svg>
