<svg width="120" height="116" viewBox="0 0 120 116" fill="none" xmlns="http://www.w3.org/2000/svg">
<path d="M13.448 19.8485C-6.34341 40.9021 -1.32847 77.7299 13.1759 96.8504C37.9072 129.388 118.073 113.326 119.803 69.0947C123.414 -22.2203 36.8413 -5.10953 13.448 19.8485Z" fill="#FCF0C3"/>
<path d="M119.892 61.3285C87.1561 33.0544 23.856 52.3151 3.82127 72.4272C3.41085 72.838 3.01051 73.2537 2.62012 73.674C4.82171 82.823 8.62536 91.2183 13.448 97.5758C38.1793 130.113 118.073 113.327 119.803 69.0951C119.909 66.4136 119.938 63.8256 119.892 61.3285Z" fill="#FEF9E7"/>
<path fill-rule="evenodd" clip-rule="evenodd" d="M44.5205 83.3859C49.0745 78.3132 54.1265 71.5261 55.9046 69.5449C57.6841 67.5633 59.5526 63.8747 57.3955 61.1392C55.2383 58.4036 52.9153 59.8201 50.361 62.2042C47.8074 64.5888 41.7347 69.9132 38.6039 73.4011C35.4736 76.888 26.2854 86.1186 26.7231 89.1242C27.3699 93.5649 32.1873 96.8498 36.1646 92.8795C40.1413 88.9102 44.5205 83.3859 44.5205 83.3859Z" fill="#999999"/>
<path fill-rule="evenodd" clip-rule="evenodd" d="M95.4203 29.8693C85.9334 14.9766 67.581 13.5014 55.0329 21.5204C48.5595 25.6574 44.6399 31.4291 42.5347 37.9895C39.9709 45.9772 39.7376 53.9788 44.9326 62.1332C50.1042 70.2525 56.2242 73.6202 64.5308 74.6446C71.3561 75.4866 78.6888 74.5822 85.1573 70.4484C91.6461 66.3018 97.364 60.9711 99.4541 54.429C101.991 46.487 100.596 37.9941 95.4203 29.8693Z" fill="#5CA4CD"/>
<path fill-rule="evenodd" clip-rule="evenodd" d="M92.1589 50.0751C93.6103 43.9769 92.0794 37.7634 87.7323 32.1069C78.452 20.031 66.4119 21.6487 57.4519 28.5545C52.8298 32.1173 49.7126 37.0731 48.5062 42.1111C47.0375 48.2455 47.3186 54.2158 51.6816 59.8926C55.1506 64.4062 60.8102 67.5921 67.1025 67.7316C72.2729 67.8462 78.5869 67.0649 83.206 63.505C87.8392 59.9338 90.9633 55.0986 92.1589 50.0751Z" fill="#C5DFED"/>
<path fill-rule="evenodd" clip-rule="evenodd" d="M83.3044 32.8355C79.8407 32.3532 83.8093 42.1098 82.8496 46.7526C81.0788 55.3185 73.3087 57.69 75.4634 59.6445C77.6307 61.6104 85.77 58.0551 88.2726 50.0358C90.7751 42.0166 86.768 33.3178 83.3044 32.8355Z" fill="#E8F2F8"/>
<path d="M5.15198 42.6153C1.29904 41.3347 0.027785 38.8733 1.65781 36.4115C3.12495 34.1826 5.95673 35.8315 7.3942 36.4514C11.3557 38.1599 14.9683 38.7315 12.538 42.1448C10.1077 45.5581 8.09905 43.8413 5.15198 42.6153Z" fill="#FFB1A0"/>
<path d="M11.1874 20.2317C6.79557 16.0747 5.84266 12.5351 8.41768 11.0473C10.759 9.72376 13.8186 13.5479 15.4178 15.2515C19.8449 19.958 24.1268 23.1524 20.298 25.0649C16.4693 26.9774 14.4876 23.6833 11.1874 20.2317Z" fill="#FFB1A0"/>
</svg>
