<svg width="120" height="116" viewBox="0 0 120 116" fill="none" xmlns="http://www.w3.org/2000/svg">
<path d="M13.448 19.8485C-6.34341 40.9021 -1.32847 77.7299 13.1759 96.8504C37.9072 129.388 118.073 113.326 119.803 69.0947C123.414 -22.2203 36.8413 -5.10953 13.448 19.8485Z" fill="#E8F2F8"/>
<path d="M119.863 67.3035C87.1627 39.104 24.0208 58.2689 3.90234 78.3455C6.16707 85.6653 9.45877 92.3175 13.4476 97.5758C38.1788 130.113 118.073 113.327 119.803 69.0951C119.827 68.4932 119.847 67.896 119.863 67.3035Z" fill="#F3F9FB"/>
<path d="M58.1083 88.0012C57.8939 90.0626 59.4936 91.1483 61.2245 91.1531C62.9602 91.1579 64.3356 88.8007 64.3582 88.0012C64.4234 85.7898 62.8089 86.3998 61.052 86.7552C59.295 87.1107 58.1742 86.3681 58.1083 88.0012Z" fill="#E6E6E6"/>
<path d="M51.5412 76.1403C50.6621 84.5919 54.1438 88.9187 61.7106 88.9187C69.5221 88.2471 70.0638 82.4152 70.1563 79.1373C70.4235 70.0711 68.2065 69.4307 61.0033 70.8879C53.8 72.3452 51.8115 69.4448 51.5412 76.1403Z" fill="#B8B8B8"/>
<path d="M47.3038 19.1611C36.9354 24.6925 31.6381 37.2506 34.6176 49.6584C36.5461 57.6896 43.5453 60.2652 48.0323 67.2007C52.4652 74.0525 47.6454 78.4226 59.3831 78.4226C71.1209 78.4226 70.3471 76.4878 71.766 67.9746C72.9004 61.1678 79.9331 55.4762 81.569 50.4323C90.8561 21.7971 59.5693 12.5947 47.3038 19.1611Z" fill="#F5D657"/>
<path fill-rule="evenodd" clip-rule="evenodd" d="M60.7273 24.7829C57.9747 26.9399 67.7504 30.8611 70.424 34.7763C75.3568 41.9997 71.6662 49.237 74.5689 49.0443C77.4885 48.8505 80.5839 40.5254 76.5526 33.1551C72.5214 25.7849 63.48 22.626 60.7273 24.7829Z" fill="white"/>
<path d="M100.59 43.0247C104.206 42.1738 105.566 40.0353 104.283 37.6585C103.128 35.5073 100.413 36.7775 99.0524 37.2245C95.3026 38.4564 91.9641 38.681 93.8986 41.9904C95.8331 45.2998 97.8042 43.9002 100.59 43.0247Z" fill="white"/>
<path d="M96.4957 25.999C100.238 23.0451 101.237 20.3331 99.3196 18.9828C97.5747 17.7781 94.9019 20.5647 93.5258 21.7894C89.7169 25.1723 86.1288 27.378 89.0001 29.1504C91.8714 30.9227 93.6603 28.4761 96.4957 25.999Z" fill="white"/>
</svg>
