<svg width="240" height="240" viewBox="0 0 240 240" fill="none" xmlns="http://www.w3.org/2000/svg">
<path fill-rule="evenodd" clip-rule="evenodd" d="M55.9588 63.4722C33.0196 81.1063 22.9163 156.914 41.7625 186.872C73.7625 237.739 199.088 218.537 211.83 154.192C241.241 5.66956 95.8584 32.8003 55.9588 63.4722" fill="#FAF0C1"/>
<path fill-rule="evenodd" clip-rule="evenodd" d="M102.486 43.688C107.2 37.1264 110.867 37.9138 117.415 33.1893C126.079 26.9374 134.101 15.4592 153.034 21.9033C166.915 26.6277 166.915 36.339 171.629 36.0765C186.812 35.2313 197.034 51.0371 184.986 79.646C180.289 90.7998 165.757 95.5122 162.916 102.051C159.677 109.504 135.519 87.9363 128.88 83.8649C123.736 80.7106 89.4106 61.887 102.486 43.688" fill="#0B5077"/>
<path fill-rule="evenodd" clip-rule="evenodd" d="M93.7415 179.855C87.4689 178.498 83.2528 170.836 81.3021 170.485C79.3923 170.143 83.3444 177.69 83.5519 178.129C84.4916 180.119 71.4409 180.088 70.8296 183.8C68.4159 198.462 85.3072 189.865 89.4306 191.162C97.7136 193.765 121.395 207.485 149.824 195.484C178.252 183.483 166.125 150.819 170.869 135.53C172.235 131.125 167.145 119.869 157.974 130.4C148.62 141.142 139.634 174.432 133.759 179.721C125.361 187.281 103.047 181.868 93.7415 179.855" fill="#509BC8"/>
<path fill-rule="evenodd" clip-rule="evenodd" d="M143.525 97.5104C133.083 94.8322 131.138 88.8784 127.408 79.7813C117.734 56.1886 119.478 54.6327 131.497 47.881C149.526 37.7535 160.42 47.9372 167.439 60.4857C174.458 73.0343 173.806 81.1272 175.558 88.3073C178.354 99.7624 188.545 107.134 199.129 112.979C212.595 120.416 178.765 138.784 165.955 137.826C153.144 136.867 153.732 125.578 156.673 115.801C158.167 110.831 154.011 100.2 143.525 97.5104" fill="#88BCDA"/>
<path fill-rule="evenodd" clip-rule="evenodd" d="M116.464 50.0984C115.456 64.5908 139.292 63.4601 147.643 57.6696C158.81 49.9278 164.691 61.7031 175.994 90.1446C176.85 92.2984 188.97 38.0218 145.425 34.3619C126.619 32.7814 116.916 43.5887 116.464 50.0984" fill="#0B5077"/>
<mask id="mask0_905_3009" style="mask-type:luminance" maskUnits="userSpaceOnUse" x="117" y="112" width="108" height="108">
<path fill-rule="evenodd" clip-rule="evenodd" d="M117.498 112.41H224.843V219.819H117.498V112.41Z" fill="white"/>
</mask>
<g mask="url(#mask0_905_3009)">
<path fill-rule="evenodd" clip-rule="evenodd" d="M201.808 112.675C205.034 114.181 234.401 123.491 221.653 169.148C211.684 204.851 214.134 201.743 208.82 210.618C205.136 216.771 197.993 220.171 165.354 219.791C135.342 219.44 115.383 219.173 117.677 215.08C128.415 195.92 132.817 173.085 134.643 156.785C138.768 119.953 152.313 113.521 155.799 116.453C157.413 117.809 150.24 129.953 161.764 134.502C176.938 140.493 194.457 109.241 201.808 112.675" fill="white"/>
</g>
<path fill-rule="evenodd" clip-rule="evenodd" d="M23.5166 131.262C37.7218 153.924 58.6003 190.26 66.2631 198.998C73.9259 207.737 84.0941 185.352 85.6634 178.136C87.2333 170.92 67.4946 140.279 57.4966 123.33C47.4981 106.381 46.9654 98.1209 36.0843 101.696C24.704 105.436 5.1979 102.038 23.5166 131.262" fill="#FE6340"/>
<path fill-rule="evenodd" clip-rule="evenodd" d="M36.413 130.91C46.8682 147.59 61.2421 174.831 66.8819 181.263C72.5218 187.694 77.6195 176.057 78.7745 170.747C79.9295 165.436 61.8387 135.771 54.4797 123.297C47.1207 110.822 46.8755 106.267 38.867 108.899C30.4908 111.652 22.9301 109.402 36.413 130.91" fill="white"/>
<path fill-rule="evenodd" clip-rule="evenodd" d="M48.4711 138.31C46.4104 139.5 44.8825 142.556 47.7304 141.706C50.5779 140.856 53.8433 138.903 56.4592 137.649C59.0756 136.395 60.1432 133.449 57.598 134.151C55.0523 134.852 51.1226 136.779 48.4711 138.31" fill="#0B5077"/>
<path fill-rule="evenodd" clip-rule="evenodd" d="M44.6742 132.142C42.6136 133.332 41.0856 136.388 43.9336 135.538C46.781 134.688 50.0464 132.735 52.6623 131.481C55.2788 130.227 56.3463 127.281 53.8011 127.983C51.2554 128.684 47.3258 130.611 44.6742 132.142" fill="#0B5077"/>
<path fill-rule="evenodd" clip-rule="evenodd" d="M51.4284 144.285C49.3678 145.474 47.667 148.515 50.5144 147.665C53.3618 146.815 56.248 145.116 58.8639 143.862C61.4798 142.607 63.1005 139.423 60.5553 140.125C58.0096 140.827 54.08 142.755 51.4284 144.285" fill="#0B5077"/>
<path fill-rule="evenodd" clip-rule="evenodd" d="M54.3844 150.259C51.3992 152.102 53.0534 153.687 53.8029 153.37C56.5393 152.209 55.8678 152.722 58.4837 151.468C61.1001 150.214 62.0818 147.373 59.5366 148.075C56.9914 148.777 56.9893 148.651 54.3844 150.259Z" fill="#0B5077"/>
<path fill-rule="evenodd" clip-rule="evenodd" d="M62.2194 167.303C61.332 169.211 66.083 176.688 68.4511 176.679C70.1551 176.673 71.8674 173.44 74.4487 170.004C76.6194 167.114 77.2537 165.71 75.8772 163.87C74.5006 162.031 72.9454 159.501 70.2776 160.82C67.6104 162.14 63.5451 164.452 62.2194 167.303" fill="#3DBA7A"/>
<path fill-rule="evenodd" clip-rule="evenodd" d="M38.8498 117.942C38.0337 119.274 40.9058 125.193 42.6532 125.387C43.9103 125.527 44.3938 124.92 47.016 123.105C48.7168 121.928 48.4193 121.109 47.7493 119.267C47.1669 117.663 45.9453 114.837 43.8658 115.583C41.7868 116.329 40.0687 115.952 38.8498 117.942" fill="#157DB6"/>
<path fill-rule="evenodd" clip-rule="evenodd" d="M104.926 164.995C98.5658 161.265 94.2024 156.477 88.6479 154.718C79.1979 151.726 65.505 152.757 67.0303 155.747C68.278 158.194 80.7489 156.266 81.3995 157.858C82.1789 159.763 80.8044 159.844 80.0486 161.979C75.4589 174.943 94.49 172.914 98.6071 175.808C106.877 181.62 129.521 205.098 161.236 202.165C192.952 199.231 205.589 167.869 212.997 152.859C215.131 148.534 211.586 134.409 200.294 142.634C188.777 151.023 181.992 181.248 155.65 180.831C129.308 180.415 114.362 170.528 104.926 164.995" fill="#88BCDA"/>
<path fill-rule="evenodd" clip-rule="evenodd" d="M186.446 149.699C183.811 155.603 200.748 171.86 206.917 169.964C213.086 168.068 221.799 149.823 218.248 138.176C215.348 128.666 199.675 128.082 192.484 139.413C189.012 144.886 187.927 146.381 186.446 149.699" fill="white"/>
<path fill-rule="evenodd" clip-rule="evenodd" d="M144.336 72.909C144.259 72.1489 143.916 71.793 143.127 71.6276C142.436 71.4827 141.923 72.0801 141.851 72.5032C141.689 73.4602 142.597 74.8848 143.561 74.4822C144.215 74.2087 144.399 73.5426 144.336 72.909" fill="#083752"/>
<path fill-rule="evenodd" clip-rule="evenodd" d="M129.157 74.2656C129.092 73.6173 128.798 73.3134 128.126 73.1722C127.536 73.0488 127.098 73.558 127.037 73.9197C126.898 74.7359 127.673 75.9517 128.497 75.6079C129.054 75.3748 129.212 74.8063 129.157 74.2656" fill="#083752"/>
<path fill-rule="evenodd" clip-rule="evenodd" d="M148.347 65.3563C144.549 64.538 142.098 65.6141 140.412 66.9789C139.971 67.3353 139.837 67.9647 140.118 68.3915C140.4 68.8193 140.958 68.5857 141.395 68.2256C142.717 67.1348 144.991 65.9873 148.481 67.1621C148.963 67.3248 149.664 67.3894 149.836 66.8471C149.989 66.3684 149.384 65.5799 148.347 65.3563" fill="#0B5077"/>
<path fill-rule="evenodd" clip-rule="evenodd" d="M128.534 68.4276C125.831 67.7572 123.649 68.4113 121.337 70.4349C120.538 71.1347 120.33 72.0134 120.654 72.3971C121.021 72.8318 121.643 72.5032 122.027 72.1677C124.801 69.7425 126.961 69.258 128.603 69.7467C131.053 70.4764 132.677 71.3908 132.95 75.7058C133.217 79.9173 135.683 80.2129 136.005 79.6648C136.426 78.9478 135.181 78.9026 134.7 78.3777C133.975 77.5845 134.3 73.4533 133.248 71.8333C132.046 69.9808 131.011 69.0417 128.534 68.4276" fill="#0B5077"/>
<path fill-rule="evenodd" clip-rule="evenodd" d="M140.293 85.6892C138.023 85.9647 135.181 84.6865 135.795 83.95C136.068 83.6225 137.196 84.0267 138.604 83.95C140.927 83.8241 142.96 82.1616 143.673 82.9201C144.173 83.4524 143.423 85.3096 140.293 85.6892" fill="white"/>
<path fill-rule="evenodd" clip-rule="evenodd" d="M164.838 65.7704C169.422 63.4738 170.878 64.8843 171.629 66.435C173.469 70.2345 170.32 74.2214 167.749 74.5274C165.082 74.845 162.556 66.9137 164.838 65.7704" fill="#88BCDA"/>
<path fill-rule="evenodd" clip-rule="evenodd" d="M40.2958 35.2598C31.4948 42.4446 30.1187 56.5049 34.6654 64.7753C42.3858 78.8183 74.1182 77.2372 78.5182 60.3112C88.6738 21.242 50.6908 26.7732 40.2958 35.2598" fill="#3DBA7A"/>
<path fill-rule="evenodd" clip-rule="evenodd" d="M44.9659 58.1969C47.2707 60.3092 50.4785 63.1948 54.9901 62.094C58.7531 61.1759 63.4208 53.3727 67.2677 45.5008C71.1145 37.6284 63.7241 37.979 61.5875 42.5501C59.4514 47.1207 55.5464 54.484 53.8414 55.3559C52.1364 56.2278 48.4252 52.1249 46.1937 52.4305C43.9628 52.736 41.1091 54.662 44.9659 58.1969" fill="white"/>
<path fill-rule="evenodd" clip-rule="evenodd" d="M83.1675 97.709C77.9729 99.4219 74.9363 105.51 75.5602 110.016C76.6188 117.667 91.1666 122.434 96.0563 115.579C107.342 99.7558 89.3034 95.6859 83.1675 97.709" fill="#3DBA7A"/>
<path fill-rule="evenodd" clip-rule="evenodd" d="M81.3248 108.834C81.9984 110.182 82.9455 112.034 85.1648 112.318C87.0155 112.555 90.4569 109.85 93.5411 106.973C96.6253 104.095 93.2399 102.977 91.493 104.664C89.7456 106.352 86.7232 108.99 85.8065 109.088C84.8893 109.186 83.925 106.699 82.869 106.452C81.8125 106.204 80.1976 106.578 81.3248 108.834" fill="white"/>
</svg>
