<svg width="240" height="240" viewBox="0 0 240 240" fill="none" xmlns="http://www.w3.org/2000/svg">
<path fill-rule="evenodd" clip-rule="evenodd" d="M164.726 32.4418C192.072 37.8648 228.483 60.0627 229.995 135.1C232.232 246.102 105.475 234.562 69.403 181.458C-17.0122 54.2403 117.161 23.008 164.726 32.4418Z" fill="#C4DCEA"/>
<path fill-rule="evenodd" clip-rule="evenodd" d="M228.103 62.1748C227.74 82.645 234.016 126.062 221.818 141.072C204.902 161.887 155.354 155.543 131.707 154.587C123.3 154.248 109.137 150.503 108.047 122.339C104.585 32.7803 87.8709 21.5143 172.336 22.235C180.227 22.3016 209.724 24.1216 217.158 29.9406C225.448 36.4304 228.352 48.0773 228.103 62.1748Z" fill="white"/>
<mask id="mask0_905_3241" style="mask-type:luminance" maskUnits="userSpaceOnUse" x="139" y="16" width="77" height="75">
<path fill-rule="evenodd" clip-rule="evenodd" d="M139.12 16.1035H215.538V90.6692H139.12V16.1035Z" fill="white"/>
</mask>
<g mask="url(#mask0_905_3241)">
<path fill-rule="evenodd" clip-rule="evenodd" d="M147.691 28.9293C135.043 42.5821 137.753 67.5715 147.022 79.929C162.761 100.913 214.302 89.3594 215.462 60.7675C217.854 1.7396 162.63 12.803 147.691 28.9293Z" fill="#FF6340"/>
</g>
<path fill-rule="evenodd" clip-rule="evenodd" d="M185.101 49.8917C183.942 50.762 182.047 52.2079 180.679 53.4046C180.882 49.7137 180.648 43.4534 181.076 34.471C181.389 27.8888 173.652 26.5089 173.867 34.0533C174.064 40.9715 174.322 46.5205 174.299 49.3894C174.292 50.258 174.315 51.1657 174.374 52.0617C173.082 50.9759 171.515 49.7814 170.504 49.0232C165.938 45.5988 159.093 48.2845 169.663 56.0338C173.031 58.5029 174.936 61.3555 177.133 61.2547C178.533 61.1909 179.413 60.9394 179.919 60.5603C181.618 59.7091 183.514 57.8342 185.969 56.0338C196.54 48.2845 189.668 46.4673 185.101 49.8917Z" fill="white"/>
<path fill-rule="evenodd" clip-rule="evenodd" d="M193.037 72.2292C191.43 73.506 180.475 74.0123 167.895 72.8424C155.715 71.709 160.547 65.232 167.511 66.2927C174.474 67.3539 182.524 67.3326 186.138 66.8633C191.391 66.1812 198.122 68.1894 193.037 72.2292Z" fill="white"/>
<path fill-rule="evenodd" clip-rule="evenodd" d="M145.496 114.905C138.892 114.788 135.058 111.787 139.28 110.415C143.503 109.043 163.746 110.756 169.961 110.895C176.177 111.032 179.595 111.344 179.545 114.074C179.493 117.011 168.364 115.415 159.828 115.339C152.152 115.273 145.496 114.905 145.496 114.905Z" fill="#FFECEA"/>
<path fill-rule="evenodd" clip-rule="evenodd" d="M127.846 127.561C128.008 132.299 124.93 139.38 138.886 139.043C153.473 138.69 168.047 138.874 177.003 138.537C185.96 138.199 189.917 135.497 189.709 129.25C189.501 123.003 187.002 123.003 169.505 123.003C152.008 123.003 127.638 121.483 127.846 127.561Z" fill="#FFECEA"/>
<path fill-rule="evenodd" clip-rule="evenodd" d="M130.49 104.294C126.161 103.565 124.098 100.196 130.293 99.4365C136.489 98.6782 150.95 99.2931 160.264 99.6543C169.578 100.015 186.176 101.602 188.123 101.667C190.068 101.732 193.766 105.574 185.61 106.037C177.455 106.5 149.338 104.073 142.55 104.19C135.761 104.306 132.311 104.6 130.49 104.294Z" fill="#FFECEA"/>
<path fill-rule="evenodd" clip-rule="evenodd" d="M160.563 105.12C160.095 97.6441 157.768 91.4975 158.708 85.6528C160.309 75.7083 167.459 63.7478 169.459 66.4969C171.094 68.7469 163.692 79.1881 164.829 80.5053C166.189 82.0822 166.888 80.8709 169.152 81.1599C182.909 82.9082 172.435 99.2591 173.169 104.316C174.644 114.477 183.288 145.651 166.235 173.105C149.183 200.56 117.407 197.816 100.528 197.692C95.6647 197.656 84.5604 187.993 97.0955 181.495C109.882 174.867 140.175 182.499 151.77 158.395C163.365 134.29 161.256 116.211 160.563 105.12Z" fill="#89BDDB"/>
<path fill-rule="evenodd" clip-rule="evenodd" d="M117.542 66.12C112.677 67.2568 110.852 70.1123 112.574 73.2791C114.131 76.1423 117.79 74.4489 119.62 73.8497C124.673 72.1983 129.155 71.8981 126.542 67.4898C123.928 63.0826 121.291 64.9463 117.542 66.12Z" fill="#F7CF12"/>
<path fill-rule="evenodd" clip-rule="evenodd" d="M115.542 37.4327C109.007 33.9423 104.55 34.2491 103.92 37.8628C103.351 41.1287 108.96 43.1951 111.56 44.3952C118.738 47.7071 124.146 51.421 124.773 46.204C125.401 40.9876 120.827 39.9253 115.542 37.4327Z" fill="#F7CF12"/>
<mask id="mask1_905_3241" style="mask-type:luminance" maskUnits="userSpaceOnUse" x="216" y="97" width="15" height="10">
<path fill-rule="evenodd" clip-rule="evenodd" d="M216.682 97.4414H230.326V106.831H216.682V97.4414Z" fill="white"/>
</mask>
<g mask="url(#mask1_905_3241)">
<path fill-rule="evenodd" clip-rule="evenodd" d="M225.537 98.92C229.821 100.139 231.329 102.759 229.662 105.508C228.155 107.993 224.967 106.328 223.362 105.718C218.929 104.033 214.949 103.575 217.462 99.7594C219.974 95.9436 222.245 97.7154 225.537 98.92Z" fill="#F7CF12"/>
</g>
<path fill-rule="evenodd" clip-rule="evenodd" d="M215.747 114.511C217.819 118.477 216.967 121.382 213.839 122.057C211.011 122.667 210.016 119.195 209.351 117.603C207.514 113.208 205.104 109.988 209.584 109.195C214.063 108.401 214.35 111.279 215.747 114.511Z" fill="#F7CF12"/>
<path fill-rule="evenodd" clip-rule="evenodd" d="M78.7657 137.358C84.9184 129.145 83.6853 123.401 81.0264 115.2C80.8489 114.653 81.6043 113.543 81.4156 112.973C81.2532 112.478 79.2361 112.279 78.4946 109.329C75.1408 95.9631 70.3164 85.3875 55.8191 87.7905C34.0749 91.3969 28.9128 108.391 31.4015 123.587C33.8901 138.784 43.6039 143.844 46.9135 151.023C52.1931 162.476 43.2102 175.796 38.2777 187.774C32.0012 203.014 69.7631 196.568 79.7972 187.185C89.8313 177.803 100.402 167.93 91.2425 164.731C77.9358 160.081 71.8183 146.63 78.7657 137.358Z" fill="#89BDDB"/>
<path fill-rule="evenodd" clip-rule="evenodd" d="M74.8643 108.099C74.3452 107.293 74.4051 106.671 75.048 105.888C75.6114 105.201 76.5802 105.384 76.9811 105.743C77.8866 106.556 78.1101 108.673 76.8506 109.036C75.9972 109.282 75.2972 108.773 74.8643 108.099Z" fill="#003854"/>
<path fill-rule="evenodd" clip-rule="evenodd" d="M67.8287 103.731C70.5632 100.601 73.3447 99.961 75.6536 100.057C76.2567 100.081 76.7708 100.538 76.8005 101.084C76.8291 101.632 76.2041 101.788 75.6015 101.757C73.7776 101.664 71.1019 102.13 68.8575 105.371C68.5472 105.818 67.9878 106.321 67.4967 105.965C67.0632 105.651 67.0811 104.587 67.8287 103.731Z" fill="#00517A"/>
<path fill-rule="evenodd" clip-rule="evenodd" d="M82.6111 120.823C82.7348 120.765 82.5562 119.921 82.074 118.475C81.7537 117.514 82.0163 117.872 80.0054 118.772C78.6754 119.368 78.1635 119.358 78.947 120.147C79.619 120.823 80.6572 121.745 82.6111 120.823Z" fill="white"/>
<path fill-rule="evenodd" clip-rule="evenodd" d="M32.2378 183.372C34.2975 168.349 41.5148 164.923 45.7702 164.186C48.1155 163.781 41.0886 172.895 57.4569 173.505C80.0366 174.346 85.1505 161.534 91.9327 162.705C112.592 174.115 136.415 166.873 137.484 170.596C144.584 195.332 146.691 194.842 135.376 198.293C127.153 200.801 128.88 213.522 129.389 221.204C129.552 223.662 124.725 223.391 84.5317 223.825C39.1045 224.317 34.0825 222.198 33.7308 219.893C31.5328 205.516 31.2617 190.5 32.2378 183.372Z" fill="white"/>
<mask id="mask2_905_3241" style="mask-type:luminance" maskUnits="userSpaceOnUse" x="9" y="63" width="66" height="90">
<path fill-rule="evenodd" clip-rule="evenodd" d="M9.67383 63.1572H74.8863V152.276H9.67383V63.1572Z" fill="white"/>
</mask>
<g mask="url(#mask2_905_3241)">
<path fill-rule="evenodd" clip-rule="evenodd" d="M42.6163 74.764C51.3271 64.9371 74.8068 47.1151 74.8863 94.3797C74.8942 98.7146 49.5295 105.9 49.9299 112.625C50.9581 129.878 64.5034 154.165 47.7465 152.159C33.8786 150.5 32.5744 145.791 16.667 129.388C-2.27048 109.859 20.9281 74.764 42.6163 74.764Z" fill="#0E6392"/>
</g>
<path fill-rule="evenodd" clip-rule="evenodd" d="M52.9974 119.748C48.6428 119.177 47.7771 122.139 47.6259 123.747C47.258 127.687 49.6693 129.419 53.2164 128.404C55.4368 127.769 55.1646 120.031 52.9974 119.748Z" fill="#89BDDB"/>
</svg>
